<?xml version="1.0" encoding="UTF-8" standalone="no"?>
<!-- Created with Inkscape (http://www.inkscape.org/) -->

<svg
   width="217.58022"
   height="31.313852"
   viewBox="0 0 57.568099 8.2851235"
   version="1.1"
   id="svg5"
   inkscape:version="1.3.2 (091e20e, 2023-11-25, custom)"
   sodipodi:docname="os-gui-logo-simple-italic.svg"
   xmlns:inkscape="http://www.inkscape.org/namespaces/inkscape"
   xmlns:sodipodi="http://sodipodi.sourceforge.net/DTD/sodipodi-0.dtd"
   xmlns:xlink="http://www.w3.org/1999/xlink"
   xmlns="http://www.w3.org/2000/svg"
   xmlns:svg="http://www.w3.org/2000/svg">
  <sodipodi:namedview
     id="namedview7"
     pagecolor="#ffffff"
     bordercolor="#666666"
     borderopacity="1.0"
     inkscape:pageshadow="2"
     inkscape:pageopacity="0.0"
     inkscape:pagecheckerboard="0"
     inkscape:document-units="mm"
     showgrid="false"
     fit-margin-top="1"
     fit-margin-left="1"
     fit-margin-right="1"
     fit-margin-bottom="1"
     inkscape:snap-page="true"
     inkscape:zoom="2.3446589"
     inkscape:cx="125.81788"
     inkscape:cy="37.318862"
     inkscape:window-width="1920"
     inkscape:window-height="1009"
     inkscape:window-x="-8"
     inkscape:window-y="-8"
     inkscape:window-maximized="1"
     inkscape:current-layer="layer1"
     units="px"
     inkscape:showpageshadow="2"
     inkscape:deskcolor="#d1d1d1" />
  <defs
     id="defs2">
    <inkscape:path-effect
       effect="skeletal"
       id="path-effect31653"
       is_visible="true"
       lpeversion="1"
       pattern="M 0,4.9921383 C 0,2.236478 2.236478,0 4.9921383,0 c 2.7556604,0 4.9921383,2.236478 4.9921383,4.9921383 0,2.7556604 -2.2364779,4.9921383 -4.9921383,4.9921383 C 2.236478,9.9842766 0,7.7477987 0,4.9921383 Z"
       copytype="single_stretched"
       prop_scale="1"
       scale_y_rel="false"
       spacing="0"
       normal_offset="0"
       tang_offset="0"
       prop_units="false"
       vertical_pattern="false"
       hide_knot="false"
       fuse_tolerance="0" />
    <inkscape:path-effect
       effect="simplify"
       id="path-effect31651"
       is_visible="true"
       lpeversion="1"
       steps="1"
       threshold="0.00406897"
       smooth_angles="360"
       helper_size="0"
       simplify_individual_paths="false"
       simplify_just_coalesce="false" />
  </defs>
  <g
     inkscape:label="Layer 1"
     inkscape:groupmode="layer"
     id="layer1"
     transform="translate(-40.083221,-86.862318)">
    <path
       style="font-size:10.5833px;line-height:1.25;font-family:LaserCorps;-inkscape-font-specification:LaserCorps;letter-spacing:0px;word-spacing:0px;fill:#000000;stroke-width:0.264583"
       sodipodi:type="inkscape:offset"
       inkscape:radius="0.083516017"
       inkscape:original="M 43.804688 87.210938 C 43.673262 87.232107 43.538712 87.264629 43.398438 87.328125 C 43.258161 87.391625 43.138603 87.465297 43.023438 87.560547 C 42.908273 87.655797 42.810756 87.761673 42.720703 87.888672 C 42.630653 88.015672 42.561709 88.142531 42.535156 88.269531 L 41.611328 92.693359 C 41.584778 92.820359 41.599769 92.947219 41.636719 93.074219 C 41.673669 93.201219 41.726579 93.307094 41.8125 93.402344 C 41.88782 93.497644 41.978073 93.571266 42.091797 93.634766 C 42.194936 93.698266 42.312454 93.742188 42.439453 93.742188 L 47.455078 93.742188 C 47.582078 93.742188 47.719091 93.698306 47.859375 93.634766 C 47.999651 93.571266 48.121162 93.497595 48.236328 93.402344 C 48.351482 93.307144 48.447056 93.201219 48.537109 93.074219 C 48.627159 92.947219 48.684702 92.820359 48.732422 92.693359 L 49.658203 88.269531 C 49.698993 87.973199 49.633909 87.729563 49.472656 87.539062 C 49.30082 87.348563 49.091052 87.232105 48.820312 87.210938 L 43.804688 87.210938 z M 51.59375 87.210938 C 51.462323 87.232107 51.329729 87.264629 51.189453 87.328125 C 51.049177 87.391625 50.927665 87.465297 50.8125 87.560547 C 50.686752 87.655797 50.590053 87.761673 50.5 87.888672 C 50.40995 88.015672 50.341006 88.142531 50.314453 88.269531 L 50.011719 89.720703 C 49.985169 89.847703 50.000159 89.974562 50.037109 90.101562 C 50.074059 90.228562 50.125835 90.334438 50.201172 90.429688 C 50.276492 90.524987 50.366746 90.598609 50.480469 90.662109 C 50.594193 90.725609 50.712026 90.767578 50.849609 90.767578 L 54.554688 90.767578 L 54.425781 91.380859 L 49.664062 91.380859 L 49.169922 93.742188 L 55.234375 93.742188 C 55.513974 93.720988 55.769726 93.615154 56.023438 93.414062 C 56.266562 93.212982 56.43276 92.969344 56.513672 92.683594 L 56.941406 90.640625 C 56.946806 90.513625 56.939314 90.396531 56.902344 90.269531 C 56.865394 90.142541 56.813617 90.036656 56.738281 89.941406 C 56.662931 89.846206 56.57466 89.762719 56.460938 89.699219 C 56.347214 89.635719 56.226357 89.602337 56.101562 89.591797 L 52.398438 89.591797 L 52.525391 88.978516 L 57.289062 88.978516 L 57.658203 87.210938 L 51.59375 87.210938 z M 63.617188 87.210938 C 63.48576 87.232107 63.351214 87.264629 63.210938 87.328125 C 63.070661 87.391625 62.949149 87.465297 62.833984 87.560547 C 62.708236 87.655797 62.613491 87.761673 62.523438 87.888672 C 62.433388 88.015672 62.364444 88.142531 62.337891 88.269531 L 61.412109 92.693359 C 61.385559 92.820359 61.40055 92.947219 61.4375 93.074219 C 61.47445 93.201219 61.526225 93.307094 61.601562 93.402344 C 61.676882 93.497644 61.769088 93.571266 61.882812 93.634766 C 61.996536 93.698266 62.11437 93.742188 62.251953 93.742188 L 67.257812 93.742188 C 67.384811 93.742188 67.519871 93.698306 67.660156 93.634766 C 67.800431 93.571266 67.921943 93.497595 68.037109 93.402344 C 68.152263 93.307144 68.247839 93.201219 68.337891 93.074219 C 68.427941 92.947219 68.487435 92.820359 68.535156 92.693359 L 69.183594 89.591797 L 65.658203 89.591797 L 65.412109 90.767578 L 66.578125 90.767578 L 66.449219 91.380859 L 64.046875 91.380859 L 64.548828 88.978516 L 69.310547 88.978516 L 69.681641 87.210938 L 63.617188 87.210938 z M 70.337891 87.210938 L 69.191406 92.693359 C 69.164856 92.820359 69.179847 92.947219 69.216797 93.074219 C 69.253747 93.201219 69.306657 93.307094 69.392578 93.402344 C 69.467898 93.497644 69.558151 93.571266 69.671875 93.634766 C 69.775014 93.698266 69.892531 93.742188 70.019531 93.742188 L 75.035156 93.742188 C 75.162156 93.742188 75.299168 93.698306 75.439453 93.634766 C 75.579728 93.571266 75.70124 93.497595 75.816406 93.402344 C 75.93156 93.307144 76.027134 93.201219 76.117188 93.074219 C 76.207238 92.947219 76.26478 92.820359 76.3125 92.693359 L 77.458984 87.210938 L 75.099609 87.210938 L 74.224609 91.392578 L 71.822266 91.392578 L 72.697266 87.210938 L 70.337891 87.210938 z M 78.115234 87.210938 L 76.75 93.742188 L 79.121094 93.742188 L 80.486328 87.210938 L 78.115234 87.210938 z M 87.164062 87.210938 L 86.507812 90.355469 C 86.41853 90.630639 86.240039 90.873127 85.986328 91.074219 C 85.719813 91.285929 85.424604 91.380859 85.085938 91.380859 L 83.308594 91.380859 L 82.814453 93.742188 L 84.962891 93.742188 C 85.39065 93.721018 85.807908 93.646217 86.230469 93.498047 C 86.640234 93.360466 87.019701 93.170016 87.369141 92.916016 C 87.716368 92.672596 88.011551 92.376594 88.253906 92.027344 C 88.494046 91.688684 88.670999 91.297193 88.761719 90.863281 L 89.525391 87.210938 L 87.164062 87.210938 z M 91.238281 87.210938 C 91.106855 87.232107 90.974259 87.264629 90.833984 87.328125 C 90.693707 87.391625 90.572196 87.465297 90.457031 87.560547 C 90.331283 87.655797 90.234584 87.761673 90.144531 87.888672 C 90.054481 88.015672 89.985537 88.142531 89.958984 88.269531 L 89.65625 89.720703 C 89.6297 89.847703 89.644691 89.974562 89.681641 90.101562 C 89.718591 90.228562 89.770366 90.334438 89.845703 90.429688 C 89.921033 90.524987 90.013231 90.598609 90.126953 90.662109 C 90.240677 90.725609 90.358512 90.767578 90.496094 90.767578 L 94.199219 90.767578 L 94.070312 91.380859 L 89.308594 91.380859 L 88.814453 93.742188 L 94.878906 93.742188 C 95.158505 93.720988 95.414258 93.615154 95.667969 93.414062 C 95.911093 93.212982 96.077292 92.969344 96.158203 92.683594 L 96.585938 90.640625 C 96.591337 90.513625 96.583845 90.396531 96.546875 90.269531 C 96.509925 90.142541 96.45815 90.036656 96.382812 89.941406 C 96.307462 89.846206 96.219193 89.762719 96.105469 89.699219 C 95.991746 89.635719 95.87089 89.602337 95.746094 89.591797 L 92.042969 89.591797 L 92.171875 88.978516 L 96.933594 88.978516 L 97.302734 87.210938 L 91.238281 87.210938 z M 44.748047 88.978516 L 47.150391 88.978516 L 46.644531 91.392578 L 44.242188 91.392578 L 44.748047 88.978516 z M 57.816406 89.591797 L 57.570312 90.767578 L 61.158203 90.767578 L 61.404297 89.591797 L 57.816406 89.591797 z M 81.458984 91.371094 C 81.289651 91.371094 81.124334 91.403297 80.962891 91.466797 C 80.801448 91.530297 80.667025 91.614863 80.539062 91.720703 C 80.411102 91.826533 80.299557 91.953392 80.205078 92.101562 C 80.110598 92.249723 80.058582 92.397891 80.025391 92.556641 C 79.954581 92.895301 80.001135 93.180094 80.1875 93.402344 C 80.361068 93.635175 80.624225 93.742187 80.962891 93.742188 C 81.12164 93.742188 81.274104 93.71975 81.435547 93.65625 C 81.59699 93.59275 81.74118 93.508175 81.869141 93.402344 C 81.997101 93.296514 82.116459 93.181363 82.210938 93.033203 C 82.305418 92.885033 82.370846 92.725971 82.40625 92.556641 C 82.43944 92.397891 82.438771 92.249723 82.40625 92.101562 C 82.37373 91.953393 82.304409 91.826533 82.220703 91.720703 C 82.137003 91.614863 82.027468 91.530297 81.892578 91.466797 C 81.757689 91.403297 81.617733 91.371094 81.458984 91.371094 z "
       xlink:href="#path9303"
       id="path9487"
       inkscape:href="#path9303"
       d="m 43.804688,87.126953 a 0.08352437,0.08352437 0 0 0 -0.01367,0.002 c -0.13585,0.02188 -0.278943,0.0557 -0.427735,0.123047 -0.146144,0.06616 -0.271836,0.144278 -0.392578,0.244141 -0.120745,0.09986 -0.224519,0.21141 -0.318359,0.34375 -0.0936,0.131999 -0.169019,0.267668 -0.199219,0.412109 l -0.923828,4.423828 c -0.03012,0.144068 -0.01208,0.286369 0.02734,0.421875 0.03893,0.133795 0.09651,0.252995 0.189453,0.357422 5.73e-4,7.26e-4 0.0014,0.0012 0.002,0.002 6.23e-4,6.95e-4 0.0013,0.0013 0.002,0.002 0.08181,0.10227 0.181175,0.181263 0.300781,0.248047 0.112144,0.06864 0.243364,0.119141 0.388672,0.119141 h 5.015625 c 0.146238,0 0.293716,-0.04922 0.439453,-0.115234 0.145878,-0.06604 0.273431,-0.143982 0.394531,-0.244141 0.121112,-0.100125 0.2229,-0.21188 0.316407,-0.34375 0.09552,-0.134713 0.156023,-0.269839 0.205078,-0.400391 a 0.08352437,0.08352437 0 0 0 0.0039,-0.01172 l 0.925781,-4.423829 a 0.08352437,0.08352437 0 0 0 0,-0.0059 c 0.04327,-0.314347 -0.02634,-0.588031 -0.203125,-0.796875 a 0.08352437,0.08352437 0 0 0 -0.002,-0.002 c -0.183139,-0.20303 -0.417855,-0.332708 -0.708984,-0.355469 a 0.08352437,0.08352437 0 0 0 -0.0059,0 z m 7.789062,0 a 0.08352437,0.08352437 0 0 0 -0.01367,0.002 c -0.135979,0.0219 -0.277253,0.05582 -0.425781,0.123047 -0.145032,0.06565 -0.272092,0.142865 -0.392578,0.242188 -0.133066,0.100793 -0.236376,0.213558 -0.330078,0.345703 -0.0936,0.131999 -0.16902,0.267668 -0.199219,0.412109 l -0.302734,1.451172 c -0.03012,0.144067 -0.01208,0.286368 0.02734,0.421875 0.03932,0.135139 0.09527,0.253157 0.177735,0.357422 0.08247,0.104346 0.183395,0.184227 0.304687,0.251953 0.121488,0.06784 0.255589,0.117188 0.410156,0.117187 h 3.601563 l -0.09375,0.445313 h -4.69336 a 0.08352437,0.08352437 0 0 0 -0.08203,0.06641 l -0.49414,2.361328 a 0.08352437,0.08352437 0 0 0 0.08203,0.101563 h 6.064453 a 0.08352437,0.08352437 0 0 0 0.0059,0 c 0.296665,-0.02249 0.571993,-0.136501 0.835938,-0.345703 a 0.08352437,0.08352437 0 0 0 0,-0.002 c 0.254251,-0.210283 0.431889,-0.468863 0.517578,-0.771485 a 0.08352437,0.08352437 0 0 0 0.002,-0.0059 l 0.427735,-2.042969 a 0.08352437,0.08352437 0 0 0 0.002,-0.01367 c 0.0056,-0.132452 -0.003,-0.261117 -0.04297,-0.398437 -0.03932,-0.135128 -0.09527,-0.253155 -0.177734,-0.357422 -0.0803,-0.101457 -0.177869,-0.191996 -0.302735,-0.261719 -0.124836,-0.0697 -0.257553,-0.107737 -0.392578,-0.119141 a 0.08352437,0.08352437 0 0 0 -0.0078,0 h -3.599609 l 0.0918,-0.445312 h 4.695312 a 0.08352437,0.08352437 0 0 0 0.08203,-0.06641 l 0.36914,-1.767578 a 0.08352437,0.08352437 0 0 0 -0.08203,-0.101563 z m 12.023438,0 a 0.08352437,0.08352437 0 0 0 -0.01367,0.002 c -0.135852,0.02188 -0.278942,0.0557 -0.427735,0.123047 -0.145033,0.06565 -0.272091,0.142865 -0.392578,0.242188 -0.133398,0.101044 -0.234753,0.214023 -0.328125,0.345703 -0.09359,0.131999 -0.169019,0.267668 -0.199219,0.412109 l -0.925781,4.423828 c -0.03012,0.144068 -0.01208,0.286369 0.02734,0.421875 0.03932,0.135139 0.09527,0.253157 0.177734,0.357422 0.08291,0.104898 0.185703,0.184425 0.306641,0.251953 0.120851,0.06748 0.254799,0.119141 0.410156,0.119141 h 5.005859 c 0.146238,0 0.292028,-0.04935 0.4375,-0.115234 0.145877,-0.06604 0.273431,-0.143981 0.394532,-0.244141 0.121111,-0.100125 0.2229,-0.211879 0.316406,-0.34375 0.09519,-0.134248 0.157712,-0.269138 0.207031,-0.400391 a 0.08352437,0.08352437 0 0 0 0.0039,-0.01172 l 0.648437,-3.101563 a 0.08352437,0.08352437 0 0 0 -0.08203,-0.101563 h -3.525391 a 0.08352437,0.08352437 0 0 0 -0.08203,0.06641 L 65.330078,90.75 a 0.08352437,0.08352437 0 0 0 0.08203,0.101562 h 1.0625 l -0.09375,0.445313 H 64.150391 L 64.617188,89.0625 h 4.693359 a 0.08352437,0.08352437 0 0 0 0.08203,-0.06641 l 0.371094,-1.767578 a 0.08352437,0.08352437 0 0 0 -0.08203,-0.101563 z m 6.720703,0 a 0.08352437,0.08352437 0 0 0 -0.08203,0.06641 l -1.146484,5.482422 c -0.03012,0.144068 -0.01208,0.286369 0.02734,0.421875 0.03893,0.133795 0.09651,0.252995 0.189453,0.357422 5.73e-4,7.26e-4 0.0014,0.0012 0.002,0.002 6.23e-4,6.95e-4 0.0013,0.0013 0.002,0.002 0.08181,0.10227 0.181176,0.181263 0.300781,0.248047 0.112144,0.06864 0.243363,0.119141 0.388672,0.119141 h 5.015625 c 0.146238,0 0.293716,-0.04922 0.439453,-0.115234 0.145877,-0.06604 0.273431,-0.143981 0.394532,-0.244141 0.121111,-0.100125 0.222899,-0.21188 0.316406,-0.34375 0.09552,-0.134713 0.156024,-0.26984 0.205078,-0.400391 a 0.08352437,0.08352437 0 0 0 0.0039,-0.01172 l 1.146485,-5.482422 a 0.08352437,0.08352437 0 0 0 -0.08203,-0.101563 h -2.359375 a 0.08352437,0.08352437 0 0 0 -0.08203,0.06641 l -0.861328,4.115235 h -2.230469 l 0.853516,-4.080078 a 0.08352437,0.08352437 0 0 0 -0.08203,-0.101563 z m 7.777343,0 a 0.08352437,0.08352437 0 0 0 -0.08203,0.06641 l -1.365234,6.53125 A 0.08352437,0.08352437 0 0 0 76.75,93.826172 h 2.371094 a 0.08352437,0.08352437 0 0 0 0.08203,-0.06641 l 1.365234,-6.53125 a 0.08352437,0.08352437 0 0 0 -0.08203,-0.101563 z m 9.048828,0 a 0.08352437,0.08352437 0 0 0 -0.08203,0.06641 l -0.654297,3.138672 c -0.08382,0.257119 -0.251615,0.483555 -0.49414,0.675781 a 0.08352437,0.08352437 0 0 0 0,0.002 c -0.252517,0.20059 -0.524597,0.287109 -0.847656,0.287109 h -1.777344 a 0.08352437,0.08352437 0 0 0 -0.08203,0.06641 l -0.49414,2.361328 a 0.08352437,0.08352437 0 0 0 0.08203,0.101563 h 2.148438 a 0.08352437,0.08352437 0 0 0 0.0039,0 c 0.434781,-0.02152 0.860537,-0.09905 1.291015,-0.25 v 0.002 c 0.417063,-0.140031 0.803517,-0.334517 1.160157,-0.59375 0.354654,-0.248627 0.656596,-0.551558 0.904297,-0.908203 v -0.002 c 0.246014,-0.347328 0.428494,-0.74859 0.521484,-1.19336 l 0.763672,-3.652343 a 0.08352437,0.08352437 0 0 0 -0.08203,-0.101563 z m 4.074219,0 a 0.08352437,0.08352437 0 0 0 -0.01367,0.002 c -0.135977,0.0219 -0.277254,0.05582 -0.425781,0.123047 -0.145033,0.06565 -0.272092,0.142865 -0.392578,0.242188 -0.133066,0.100793 -0.236376,0.213558 -0.330078,0.345703 -0.09359,0.131999 -0.169019,0.267668 -0.199219,0.412109 l -0.302734,1.451172 c -0.03012,0.144068 -0.01208,0.286369 0.02734,0.421875 0.03932,0.135139 0.09527,0.253156 0.177735,0.357422 0.08291,0.104891 0.185704,0.184424 0.306641,0.251953 0.121488,0.06784 0.25559,0.117188 0.410156,0.117187 h 3.599609 l -0.09375,0.445313 h -4.693359 a 0.08352437,0.08352437 0 0 0 -0.08203,0.06641 l -0.49414,2.361328 a 0.08352437,0.08352437 0 0 0 0.08203,0.101563 h 6.064453 a 0.08352437,0.08352437 0 0 0 0.0059,0 c 0.296665,-0.02249 0.571993,-0.136501 0.835937,-0.345703 a 0.08352437,0.08352437 0 0 0 0,-0.002 c 0.254251,-0.210283 0.43189,-0.468863 0.517578,-0.771485 a 0.08352437,0.08352437 0 0 0 0.002,-0.0059 l 0.427735,-2.042969 a 0.08352437,0.08352437 0 0 0 0.002,-0.01367 c 0.0056,-0.132452 -0.003,-0.261117 -0.04297,-0.398437 -0.03932,-0.135128 -0.09526,-0.253154 -0.177734,-0.357422 -0.0803,-0.101457 -0.177866,-0.191996 -0.302735,-0.261719 -0.124835,-0.0697 -0.257552,-0.107737 -0.392578,-0.119141 a 0.08352437,0.08352437 0 0 0 -0.0078,0 h -3.59961 l 0.09375,-0.445312 h 4.69336 a 0.08352437,0.08352437 0 0 0 0.08203,-0.06641 l 0.369141,-1.767578 a 0.08352437,0.08352437 0 0 0 -0.08203,-0.101563 z M 44.816406,89.0625 h 2.230469 l -0.470703,2.246094 h -2.230469 z m 13,0.445312 a 0.08352437,0.08352437 0 0 0 -0.08203,0.06641 L 57.488281,90.75 a 0.08352437,0.08352437 0 0 0 0.08203,0.101562 h 3.587891 a 0.08352437,0.08352437 0 0 0 0.08203,-0.06641 l 0.246094,-1.175781 a 0.08352437,0.08352437 0 0 0 -0.08203,-0.101563 z m 23.642578,1.779297 c -0.179921,0 -0.356778,0.03448 -0.527343,0.101563 -0.170252,0.06696 -0.312051,0.157355 -0.445313,0.267578 -0.13485,0.111528 -0.25268,0.245316 -0.351562,0.400391 -0.100581,0.157727 -0.156769,0.316752 -0.191407,0.482421 -0.07423,0.35502 -0.02485,0.672097 0.179688,0.916016 0.190473,0.253855 0.484645,0.371093 0.839844,0.371094 0.166618,0 0.332032,-0.02419 0.503906,-0.0918 0.169187,-0.06655 0.320212,-0.156037 0.455078,-0.267578 0.131232,-0.108537 0.258299,-0.230166 0.359375,-0.388672 0.09965,-0.156278 0.169553,-0.324656 0.207031,-0.503906 0.03537,-0.16916 0.03497,-0.330919 0,-0.490235 -0.03571,-0.162693 -0.111238,-0.302312 -0.201172,-0.416015 -0.09226,-0.11667 -0.214396,-0.209095 -0.359375,-0.277344 -0.145185,-0.06835 -0.298706,-0.103516 -0.46875,-0.103516 z"
       inkscape:label="Text Outline" />
    <path
       style="font-size:10.5833px;line-height:1.25;font-family:LaserCorps;-inkscape-font-specification:LaserCorps;letter-spacing:0px;word-spacing:0px;fill:#000000;stroke-width:0.264583"
       sodipodi:type="inkscape:offset"
       inkscape:radius="0.61119765"
       inkscape:original="M 43.804688 87.210938 C 43.673262 87.232107 43.538712 87.264629 43.398438 87.328125 C 43.258161 87.391625 43.138603 87.465297 43.023438 87.560547 C 42.908273 87.655797 42.810756 87.761673 42.720703 87.888672 C 42.630653 88.015672 42.561709 88.142531 42.535156 88.269531 L 41.611328 92.693359 C 41.584778 92.820359 41.599769 92.947219 41.636719 93.074219 C 41.673669 93.201219 41.726579 93.307094 41.8125 93.402344 C 41.88782 93.497644 41.978073 93.571266 42.091797 93.634766 C 42.194936 93.698266 42.312454 93.742188 42.439453 93.742188 L 47.455078 93.742188 C 47.582078 93.742188 47.719091 93.698306 47.859375 93.634766 C 47.999651 93.571266 48.121162 93.497595 48.236328 93.402344 C 48.351482 93.307144 48.447056 93.201219 48.537109 93.074219 C 48.627159 92.947219 48.684702 92.820359 48.732422 92.693359 L 49.658203 88.269531 C 49.698993 87.973199 49.633909 87.729563 49.472656 87.539062 C 49.30082 87.348563 49.091052 87.232105 48.820312 87.210938 L 43.804688 87.210938 z M 51.59375 87.210938 C 51.462323 87.232107 51.329729 87.264629 51.189453 87.328125 C 51.049177 87.391625 50.927665 87.465297 50.8125 87.560547 C 50.686752 87.655797 50.590053 87.761673 50.5 87.888672 C 50.40995 88.015672 50.341006 88.142531 50.314453 88.269531 L 50.011719 89.720703 C 49.985169 89.847703 50.000159 89.974562 50.037109 90.101562 C 50.074059 90.228562 50.125835 90.334438 50.201172 90.429688 C 50.276492 90.524987 50.366746 90.598609 50.480469 90.662109 C 50.594193 90.725609 50.712026 90.767578 50.849609 90.767578 L 54.554688 90.767578 L 54.425781 91.380859 L 49.664062 91.380859 L 49.169922 93.742188 L 55.234375 93.742188 C 55.513974 93.720988 55.769726 93.615154 56.023438 93.414062 C 56.266562 93.212982 56.43276 92.969344 56.513672 92.683594 L 56.941406 90.640625 C 56.946806 90.513625 56.939314 90.396531 56.902344 90.269531 C 56.865394 90.142541 56.813617 90.036656 56.738281 89.941406 C 56.662931 89.846206 56.57466 89.762719 56.460938 89.699219 C 56.347214 89.635719 56.226357 89.602337 56.101562 89.591797 L 52.398438 89.591797 L 52.525391 88.978516 L 57.289062 88.978516 L 57.658203 87.210938 L 51.59375 87.210938 z M 63.617188 87.210938 C 63.48576 87.232107 63.351214 87.264629 63.210938 87.328125 C 63.070661 87.391625 62.949149 87.465297 62.833984 87.560547 C 62.708236 87.655797 62.613491 87.761673 62.523438 87.888672 C 62.433388 88.015672 62.364444 88.142531 62.337891 88.269531 L 61.412109 92.693359 C 61.385559 92.820359 61.40055 92.947219 61.4375 93.074219 C 61.47445 93.201219 61.526225 93.307094 61.601562 93.402344 C 61.676882 93.497644 61.769088 93.571266 61.882812 93.634766 C 61.996536 93.698266 62.11437 93.742188 62.251953 93.742188 L 67.257812 93.742188 C 67.384811 93.742188 67.519871 93.698306 67.660156 93.634766 C 67.800431 93.571266 67.921943 93.497595 68.037109 93.402344 C 68.152263 93.307144 68.247839 93.201219 68.337891 93.074219 C 68.427941 92.947219 68.487435 92.820359 68.535156 92.693359 L 69.183594 89.591797 L 65.658203 89.591797 L 65.412109 90.767578 L 66.578125 90.767578 L 66.449219 91.380859 L 64.046875 91.380859 L 64.548828 88.978516 L 69.310547 88.978516 L 69.681641 87.210938 L 63.617188 87.210938 z M 70.337891 87.210938 L 69.191406 92.693359 C 69.164856 92.820359 69.179847 92.947219 69.216797 93.074219 C 69.253747 93.201219 69.306657 93.307094 69.392578 93.402344 C 69.467898 93.497644 69.558151 93.571266 69.671875 93.634766 C 69.775014 93.698266 69.892531 93.742188 70.019531 93.742188 L 75.035156 93.742188 C 75.162156 93.742188 75.299168 93.698306 75.439453 93.634766 C 75.579728 93.571266 75.70124 93.497595 75.816406 93.402344 C 75.93156 93.307144 76.027134 93.201219 76.117188 93.074219 C 76.207238 92.947219 76.26478 92.820359 76.3125 92.693359 L 77.458984 87.210938 L 75.099609 87.210938 L 74.224609 91.392578 L 71.822266 91.392578 L 72.697266 87.210938 L 70.337891 87.210938 z M 78.115234 87.210938 L 76.75 93.742188 L 79.121094 93.742188 L 80.486328 87.210938 L 78.115234 87.210938 z M 87.164062 87.210938 L 86.507812 90.355469 C 86.41853 90.630639 86.240039 90.873127 85.986328 91.074219 C 85.719813 91.285929 85.424604 91.380859 85.085938 91.380859 L 83.308594 91.380859 L 82.814453 93.742188 L 84.962891 93.742188 C 85.39065 93.721018 85.807908 93.646217 86.230469 93.498047 C 86.640234 93.360466 87.019701 93.170016 87.369141 92.916016 C 87.716368 92.672596 88.011551 92.376594 88.253906 92.027344 C 88.494046 91.688684 88.670999 91.297193 88.761719 90.863281 L 89.525391 87.210938 L 87.164062 87.210938 z M 91.238281 87.210938 C 91.106855 87.232107 90.974259 87.264629 90.833984 87.328125 C 90.693707 87.391625 90.572196 87.465297 90.457031 87.560547 C 90.331283 87.655797 90.234584 87.761673 90.144531 87.888672 C 90.054481 88.015672 89.985537 88.142531 89.958984 88.269531 L 89.65625 89.720703 C 89.6297 89.847703 89.644691 89.974562 89.681641 90.101562 C 89.718591 90.228562 89.770366 90.334438 89.845703 90.429688 C 89.921033 90.524987 90.013231 90.598609 90.126953 90.662109 C 90.240677 90.725609 90.358512 90.767578 90.496094 90.767578 L 94.199219 90.767578 L 94.070312 91.380859 L 89.308594 91.380859 L 88.814453 93.742188 L 94.878906 93.742188 C 95.158505 93.720988 95.414258 93.615154 95.667969 93.414062 C 95.911093 93.212982 96.077292 92.969344 96.158203 92.683594 L 96.585938 90.640625 C 96.591337 90.513625 96.583845 90.396531 96.546875 90.269531 C 96.509925 90.142541 96.45815 90.036656 96.382812 89.941406 C 96.307462 89.846206 96.219193 89.762719 96.105469 89.699219 C 95.991746 89.635719 95.87089 89.602337 95.746094 89.591797 L 92.042969 89.591797 L 92.171875 88.978516 L 96.933594 88.978516 L 97.302734 87.210938 L 91.238281 87.210938 z M 44.748047 88.978516 L 47.150391 88.978516 L 46.644531 91.392578 L 44.242188 91.392578 L 44.748047 88.978516 z M 57.816406 89.591797 L 57.570312 90.767578 L 61.158203 90.767578 L 61.404297 89.591797 L 57.816406 89.591797 z M 81.458984 91.371094 C 81.289651 91.371094 81.124334 91.403297 80.962891 91.466797 C 80.801448 91.530297 80.667025 91.614863 80.539062 91.720703 C 80.411102 91.826533 80.299557 91.953392 80.205078 92.101562 C 80.110598 92.249723 80.058582 92.397891 80.025391 92.556641 C 79.954581 92.895301 80.001135 93.180094 80.1875 93.402344 C 80.361068 93.635175 80.624225 93.742187 80.962891 93.742188 C 81.12164 93.742188 81.274104 93.71975 81.435547 93.65625 C 81.59699 93.59275 81.74118 93.508175 81.869141 93.402344 C 81.997101 93.296514 82.116459 93.181363 82.210938 93.033203 C 82.305418 92.885033 82.370846 92.725971 82.40625 92.556641 C 82.43944 92.397891 82.438771 92.249723 82.40625 92.101562 C 82.37373 91.953393 82.304409 91.826533 82.220703 91.720703 C 82.137003 91.614863 82.027468 91.530297 81.892578 91.466797 C 81.757689 91.403297 81.617733 91.371094 81.458984 91.371094 z "
       xlink:href="#path9303"
       id="path9487-3"
       inkscape:href="#path9303"
       d="m 43.804688,86.599609 a 0.61125877,0.61125877 0 0 0 -0.09766,0.0078 c -0.163796,0.02638 -0.357936,0.07235 -0.560547,0.164062 -0.183214,0.08294 -0.355737,0.189352 -0.511718,0.31836 -0.155999,0.129022 -0.294343,0.279229 -0.41211,0.445312 -0.11599,0.163585 -0.231916,0.354734 -0.285156,0.609375 l -0.923828,4.423828 c -0.05266,0.251909 -0.01795,0.486529 0.03711,0.675782 0.05373,0.184663 0.154474,0.38555 0.300781,0.552734 0.121284,0.147608 0.271014,0.269661 0.427735,0.359375 0.171761,0.10464 0.395329,0.197266 0.660156,0.197266 h 5.015625 c 0.267791,0 0.476061,-0.08049 0.65625,-0.16211 0.181269,-0.08206 0.355073,-0.187186 0.513672,-0.318359 0.0029,-0.0024 0.0049,-0.0054 0.0078,-0.0078 a 0.61125877,0.61125877 0 0 0 0.53711,0.488282 h 6.064453 a 0.61125877,0.61125877 0 0 0 0.04687,-0.002 c 0.404494,-0.03067 0.792497,-0.198538 1.121094,-0.458984 a 0.61125877,0.61125877 0 0 0 0.0098,-0.0078 c 0.324554,-0.268428 0.573579,-0.625933 0.689453,-1.035157 a 0.61125877,0.61125877 0 0 0 0.0098,-0.04102 l 0.314453,-1.498047 a 0.61125877,0.61125877 0 0 0 0.144531,0.06836 H 61.0625 l -0.248047,1.189453 c -0.05266,0.251909 -0.01795,0.486529 0.03711,0.675782 0.05428,0.186563 0.143964,0.375882 0.271485,0.537109 0.13068,0.164945 0.294835,0.293972 0.460937,0.386719 0.165886,0.09262 0.400307,0.185547 0.667969,0.185547 h 5.005859 c 0.267791,0 0.47605,-0.08137 0.654297,-0.16211 0.181267,-0.08206 0.355072,-0.187185 0.513672,-0.318359 0.133014,-0.109965 0.241491,-0.239933 0.34375,-0.373047 0.05095,0.10164 0.08347,0.207009 0.16211,0.296875 0.121283,0.147608 0.271013,0.269661 0.427734,0.359375 0.17176,0.104639 0.39533,0.197266 0.660156,0.197266 h 5.015625 c 0.267791,0 0.476062,-0.0805 0.65625,-0.16211 0.181267,-0.08206 0.355072,-0.187185 0.513672,-0.318359 0.0029,-0.0024 0.0049,-0.0054 0.0078,-0.0078 A 0.61125877,0.61125877 0 0 0 76.75,94.353516 h 2.371094 a 0.61125877,0.61125877 0 0 0 0.597656,-0.486328 l 0.01563,-0.07227 c 0.299782,0.372435 0.776065,0.558592 1.228516,0.558594 0.216341,0 0.459483,-0.03538 0.697265,-0.128907 0.218114,-0.08579 0.419166,-0.20394 0.597656,-0.351562 0.0051,-0.0043 0.01043,-0.01324 0.01563,-0.01758 a 0.61125877,0.61125877 0 0 0 0.541015,0.498047 h 2.148438 a 0.61125877,0.61125877 0 0 0 0.0293,0 c 0.479151,-0.02371 0.960899,-0.110809 1.441406,-0.279297 0.458731,-0.154875 0.892272,-0.372859 1.291015,-0.66211 0.264643,-0.186043 0.463879,-0.441351 0.677735,-0.68164 l -0.185547,0.886719 a 0.61125877,0.61125877 0 0 0 0.597656,0.736328 h 6.064453 a 0.61125877,0.61125877 0 0 0 0.04687,-0.002 c 0.404494,-0.03067 0.792497,-0.198537 1.121094,-0.458984 a 0.61125877,0.61125877 0 0 0 0.0098,-0.0078 c 0.324552,-0.268427 0.573579,-0.62593 0.689453,-1.035157 a 0.61125877,0.61125877 0 0 0 0.0098,-0.04102 l 0.427735,-2.042969 a 0.61125877,0.61125877 0 0 0 0.01367,-0.09961 c 0.0071,-0.1669 -0.0055,-0.363882 -0.06445,-0.566407 -0.05152,-0.177065 -0.140393,-0.354132 -0.257812,-0.509765 h 0.05859 a 0.61125877,0.61125877 0 0 0 0.597656,-0.486328 l 0.369141,-1.767578 a 0.61125877,0.61125877 0 0 0 -0.597657,-0.736329 h -6.064453 a 0.61125877,0.61125877 0 0 0 -0.09766,0.0078 c -0.164735,0.02653 -0.357926,0.07323 -0.558594,0.164062 -0.170219,0.07705 -0.3317,0.17864 -0.482422,0.298828 a 0.61125877,0.61125877 0 0 0 -0.574218,-0.470703 h -2.361329 a 0.61125877,0.61125877 0 0 0 -0.597656,0.486329 l -0.644531,3.083984 c -0.0485,0.146326 -0.140622,0.288002 -0.314453,0.425781 a 0.61125877,0.61125877 0 0 0 -0.002,0 c -0.164072,0.130333 -0.29508,0.173828 -0.519531,0.173828 h -1.777344 a 0.61125877,0.61125877 0 0 0 -0.597656,0.486328 l -0.01758,0.08203 c -0.145806,-0.182406 -0.334403,-0.326565 -0.541015,-0.423829 -0.210245,-0.09897 -0.451954,-0.154296 -0.69336,-0.154296 -0.246823,0 -0.4925,0.04891 -0.720703,0.138672 -0.175093,0.06887 -0.315343,0.171974 -0.455078,0.273437 l 0.800781,-3.835937 A 0.61125877,0.61125877 0 0 0 80.486328,86.599609 H 78.115234 A 0.61125877,0.61125877 0 0 0 77.875,86.794922 0.61125877,0.61125877 0 0 0 77.458984,86.599609 h -2.359375 a 0.61125877,0.61125877 0 0 0 -0.597656,0.486329 l -0.773437,3.695312 h -1.154297 l 0.720703,-3.445312 a 0.61125877,0.61125877 0 0 0 -0.597656,-0.736329 h -2.359375 a 0.61125877,0.61125877 0 0 0 -0.240235,0.195313 0.61125877,0.61125877 0 0 0 -0.416015,-0.195313 h -6.064453 a 0.61125877,0.61125877 0 0 0 -0.09766,0.0078 c -0.1638,0.02638 -0.35794,0.07235 -0.560547,0.164062 -0.177049,0.08015 -0.346328,0.183619 -0.501953,0.310547 -0.177296,0.136121 -0.31928,0.294667 -0.43164,0.453125 -0.115991,0.163585 -0.231917,0.354734 -0.285157,0.609375 l -0.183593,0.88086 a 0.61125877,0.61125877 0 0 0 -0.152344,-0.04492 h -3.492188 l 0.34375,-1.644531 A 0.61125877,0.61125877 0 0 0 57.658203,86.599609 H 51.59375 a 0.61125877,0.61125877 0 0 0 -0.09766,0.0078 c -0.164738,0.02653 -0.357928,0.07323 -0.558594,0.164062 -0.177048,0.08015 -0.346328,0.183619 -0.501953,0.310547 -0.161568,0.12397 -0.290465,0.26921 -0.400391,0.417969 -0.05204,-0.11414 -0.01486,-0.259961 -0.0957,-0.355469 a 0.61125877,0.61125877 0 0 0 -0.01367,-0.01563 c -0.254556,-0.282203 -0.638636,-0.49451 -1.058593,-0.527344 a 0.61125877,0.61125877 0 0 0 -0.04688,-0.002 z m 1.439453,2.990235 h 1.154297 l -0.25,1.191406 h -1.154297 z m 19.576171,1.076172 a 0.61125877,0.61125877 0 0 0 0.02539,0.103515 h -0.04687 z m 14.876954,3.101562 c 0.0035,0.0046 0.01015,0.0052 0.01367,0.0098 0.0042,0.0051 0.0035,0.01248 0.0078,0.01758 z"
       transform="translate(-0.6398061,0.52916663)"
       inkscape:label="Text Shadow" />
    <path
       id="path9303"
       style="font-size:10.5833px;line-height:1.25;font-family:LaserCorps;-inkscape-font-specification:LaserCorps;letter-spacing:0px;word-spacing:0px;fill:#ffffff;stroke-width:0.264583"
       d="m 95.746969,89.592736 h -3.704155 l 0.12834,-0.613828 h 4.762485 l 0.369535,-1.767411 h -6.064231 c -0.131426,0.02117 -0.265064,0.05292 -0.405339,0.116416 -0.140277,0.0635 -0.261599,0.137583 -0.376764,0.232833 -0.125748,0.09525 -0.221959,0.201083 -0.312012,0.328082 -0.09005,0.127 -0.158939,0.253999 -0.185492,0.380999 l -0.303151,1.449909 c -0.02655,0.127 -0.01078,0.254 0.02617,0.381 0.03695,0.127 0.0889,0.23283 0.164237,0.32808 0.07533,0.0953 0.165677,0.16934 0.279399,0.23284 0.113724,0.0635 0.231873,0.10583 0.369455,0.10583 h 3.704155 l -0.128341,0.613832 h -4.762484 l -0.493452,2.360081 h 6.06423 c 0.279599,-0.0212 0.534553,-0.127 0.788264,-0.328091 0.243124,-0.20108 0.410434,-0.44449 0.491345,-0.73024 l 0.427068,-2.042582 c 0.0054,-0.127 -0.002,-0.24342 -0.03897,-0.37042 -0.03695,-0.12699 -0.0889,-0.23283 -0.164237,-0.32808 -0.07535,-0.0952 -0.163466,-0.17991 -0.27719,-0.24341 -0.113723,-0.0635 -0.234073,-0.0953 -0.358869,-0.10584 z m -10.783958,4.148663 h -2.14841 l 0.493452,-2.360081 h 1.777994 c 0.338666,0 0.633735,-0.0952 0.90025,-0.30691 0.253711,-0.201092 0.431603,-0.444502 0.520886,-0.719672 l 0.657196,-3.143239 h 2.360076 l -0.76341,3.651239 c -0.09072,0.433912 -0.267848,0.825502 -0.507988,1.164162 -0.242355,0.34925 -0.537145,0.64558 -0.884372,0.889 -0.34944,0.254 -0.727935,0.4445 -1.1377,0.582081 -0.422561,0.14817 -0.840215,0.22225 -1.267974,0.24342 z m -4.93797,-1.185331 c -0.07081,0.33866 -0.02472,0.62441 0.161645,0.84666 0.173568,0.232831 0.437187,0.338671 0.775853,0.338671 0.158749,0 0.311348,-0.0212 0.472791,-0.0847 0.161443,-0.0635 0.306145,-0.14817 0.434106,-0.254001 0.12796,-0.10583 0.247551,-0.22225 0.342029,-0.37041 0.09448,-0.14817 0.159422,-0.30692 0.194826,-0.47625 0.03319,-0.15875 0.03242,-0.30692 -1.01e-4,-0.45508 -0.03252,-0.14817 -0.101217,-0.27517 -0.184923,-0.381 -0.0837,-0.10584 -0.193002,-0.1905 -0.327892,-0.254 -0.134889,-0.0635 -0.276427,-0.0952 -0.435176,-0.0952 -0.169333,0 -0.334711,0.0317 -0.496154,0.0952 -0.161443,0.0635 -0.29556,0.14816 -0.423522,0.254 -0.12796,0.10583 -0.239181,0.23283 -0.33366,0.381 -0.09448,0.14816 -0.146628,0.29633 -0.179819,0.45508 z m -0.90399,1.185331 h -2.370659 l 1.365288,-6.529902 h 2.370659 z m -4.895646,-2.349501 h -2.402409 l 0.874048,-4.180401 h -2.360076 l -1.146221,5.482151 c -0.02655,0.127 -0.01078,0.254 0.02617,0.381 0.03695,0.127 0.0889,0.23283 0.174821,0.32808 0.07532,0.0953 0.165678,0.169331 0.279402,0.232831 0.103139,0.0635 0.221285,0.10584 0.348285,0.10584 h 5.016484 c 0.127,0 0.262844,-0.0423 0.403129,-0.10584 0.140275,-0.0635 0.261597,-0.13758 0.376763,-0.232831 0.115154,-0.0952 0.211375,-0.20108 0.301428,-0.32808 0.09005,-0.127 0.148357,-0.254 0.196077,-0.381 l 1.146221,-5.482151 h -2.360076 z m -5.042462,-1.799162 h -3.524239 l -0.24562,1.17475 h 1.164163 l -0.128341,0.613832 h -2.402409 l 0.502301,-2.40241 h 4.762485 l 0.369535,-1.767411 h -6.064231 c -0.131427,0.02117 -0.265064,0.05292 -0.40534,0.116416 -0.140276,0.0635 -0.261598,0.137583 -0.376763,0.232833 -0.125748,0.09525 -0.221959,0.201083 -0.312012,0.328082 -0.09005,0.127 -0.15894,0.253999 -0.185493,0.380999 l -0.924943,4.423821 c -0.02655,0.127 -0.01078,0.254 0.02617,0.381 0.03695,0.127 0.0889,0.23283 0.164238,0.32808 0.07532,0.0953 0.165677,0.169331 0.279401,0.232831 0.113723,0.0635 0.231869,0.10584 0.369452,0.10584 H 67.2572 c 0.126999,0 0.262844,-0.0423 0.403129,-0.10584 0.140275,-0.0635 0.261597,-0.13758 0.376763,-0.232831 0.115154,-0.0952 0.211375,-0.20108 0.301427,-0.32808 0.09005,-0.127 0.148357,-0.254 0.196078,-0.381 z m -8.024335,1.17475 h -3.587739 l 0.24562,-1.17475 h 3.587739 z m -5.056599,-1.17475 h -3.704155 l 0.12834,-0.613828 h 4.762485 l 0.369535,-1.767411 h -6.064231 c -0.131427,0.02117 -0.265064,0.05292 -0.40534,0.116416 -0.140276,0.0635 -0.261598,0.137583 -0.376763,0.232833 -0.125748,0.09525 -0.221959,0.201083 -0.312012,0.328082 -0.09005,0.127 -0.15894,0.253999 -0.185493,0.380999 l -0.303151,1.449909 c -0.02655,0.127 -0.01078,0.254 0.02617,0.381 0.03695,0.127 0.0889,0.23283 0.164237,0.32808 0.07532,0.0953 0.165676,0.16934 0.279399,0.23284 0.113724,0.0635 0.231872,0.10583 0.369455,0.10583 h 3.704155 l -0.128341,0.613832 h -4.762485 l -0.493452,2.360081 h 6.064231 c 0.279599,-0.0212 0.534552,-0.127 0.788263,-0.328091 0.243125,-0.20108 0.410434,-0.44449 0.491346,-0.73024 l 0.427068,-2.042582 c 0.0054,-0.127 -0.002,-0.24342 -0.03897,-0.37042 -0.03695,-0.12699 -0.0889,-0.23283 -0.164236,-0.32808 -0.07535,-0.0952 -0.163467,-0.17991 -0.27719,-0.24341 -0.113723,-0.0635 -0.234074,-0.0953 -0.358869,-0.10584 z M 42.4394,93.741399 h 5.016484 c 0.127,0 0.262845,-0.0423 0.403129,-0.10584 0.140276,-0.0635 0.261598,-0.13758 0.376764,-0.232831 0.115154,-0.0952 0.211374,-0.20108 0.301427,-0.32808 0.09005,-0.127 0.148357,-0.254 0.196077,-0.381 l 0.924943,-4.423821 c 0.04079,-0.296332 -0.02473,-0.539748 -0.185983,-0.730248 -0.171836,-0.190499 -0.380329,-0.306915 -0.651069,-0.328082 h -5.016484 c -0.131426,0.02117 -0.265064,0.05292 -0.405339,0.116416 -0.140277,0.0635 -0.261599,0.137583 -0.376764,0.232833 -0.115165,0.09525 -0.211375,0.201083 -0.301428,0.328082 -0.09005,0.127 -0.15894,0.253999 -0.185493,0.380999 l -0.924943,4.423821 c -0.02655,0.127 -0.01078,0.254 0.02617,0.381 0.03695,0.127 0.0889,0.23283 0.174821,0.32808 0.07532,0.0953 0.165677,0.169331 0.279401,0.232831 0.103139,0.0635 0.221286,0.10584 0.348285,0.10584 z m 4.205979,-2.349501 H 44.24297 l 0.504513,-2.41299 h 2.402409 z"
       inkscape:label="Text Surface" />
  </g>
</svg>
