<?xml version="1.0" encoding="UTF-8" standalone="no"?>
<!-- Created with Inkscape (http://www.inkscape.org/) -->

<svg
   width="210.79645"
   height="29.312885"
   viewBox="0 0 55.773227 7.755701"
   version="1.1"
   id="svg5"
   inkscape:version="1.3.2 (091e20e, 2023-11-25, custom)"
   sodipodi:docname="os-gui-logo.svg"
   xmlns:inkscape="http://www.inkscape.org/namespaces/inkscape"
   xmlns:sodipodi="http://sodipodi.sourceforge.net/DTD/sodipodi-0.dtd"
   xmlns:xlink="http://www.w3.org/1999/xlink"
   xmlns="http://www.w3.org/2000/svg"
   xmlns:svg="http://www.w3.org/2000/svg">
  <sodipodi:namedview
     id="namedview7"
     pagecolor="#ffffff"
     bordercolor="#666666"
     borderopacity="1.0"
     inkscape:pageshadow="2"
     inkscape:pageopacity="0.0"
     inkscape:pagecheckerboard="0"
     inkscape:document-units="mm"
     showgrid="false"
     fit-margin-top="1"
     fit-margin-left="1"
     fit-margin-right="1"
     fit-margin-bottom="1"
     inkscape:snap-page="true"
     inkscape:zoom="4.6614163"
     inkscape:cx="97.502555"
     inkscape:cy="-0.32179061"
     inkscape:window-width="1920"
     inkscape:window-height="1009"
     inkscape:window-x="-8"
     inkscape:window-y="-8"
     inkscape:window-maximized="1"
     inkscape:current-layer="layer1"
     units="px"
     inkscape:showpageshadow="2"
     inkscape:deskcolor="#d1d1d1" />
  <defs
     id="defs2">
    <linearGradient
       inkscape:collect="always"
       id="linearGradient10082">
      <stop
         style="stop-color:#ff49cc;stop-opacity:1"
         offset="0"
         id="stop10078" />
      <stop
         style="stop-color:#2a7fff;stop-opacity:1"
         offset="1"
         id="stop10080" />
    </linearGradient>
    <inkscape:path-effect
       effect="skeletal"
       id="path-effect31653"
       is_visible="true"
       lpeversion="1"
       pattern="M 0,4.9921383 C 0,2.236478 2.236478,0 4.9921383,0 c 2.7556604,0 4.9921383,2.236478 4.9921383,4.9921383 0,2.7556604 -2.2364779,4.9921383 -4.9921383,4.9921383 C 2.236478,9.9842766 0,7.7477987 0,4.9921383 Z"
       copytype="single_stretched"
       prop_scale="1"
       scale_y_rel="false"
       spacing="0"
       normal_offset="0"
       tang_offset="0"
       prop_units="false"
       vertical_pattern="false"
       hide_knot="false"
       fuse_tolerance="0" />
    <inkscape:path-effect
       effect="simplify"
       id="path-effect31651"
       is_visible="true"
       lpeversion="1"
       steps="1"
       threshold="0.00406897"
       smooth_angles="360"
       helper_size="0"
       simplify_individual_paths="false"
       simplify_just_coalesce="false" />
    <linearGradient
       inkscape:collect="always"
       xlink:href="#linearGradient10082"
       id="linearGradient10084"
       x1="40.385937"
       y1="87.088882"
       x2="96.159164"
       y2="87.088882"
       gradientUnits="userSpaceOnUse" />
  </defs>
  <g
     inkscape:label="Layer 1"
     inkscape:groupmode="layer"
     id="layer1"
     transform="translate(-40.385938,-87.088881)">
    <path
       style="font-size:10.5833px;line-height:1.25;font-family:LaserCorps;-inkscape-font-specification:LaserCorps;letter-spacing:0px;word-spacing:0px;display:inline;fill:#000000;stroke-width:0.264583"
       sodipodi:type="inkscape:offset"
       inkscape:radius="0.083516017"
       inkscape:original="M 42.310547 87.4375 C 42.183548 87.45867 42.056686 87.489238 41.929688 87.552734 C 41.802687 87.616234 41.696812 87.691859 41.601562 87.787109 C 41.506312 87.882359 41.432641 87.988235 41.369141 88.115234 C 41.305641 88.242234 41.263672 88.369094 41.263672 88.496094 L 41.263672 92.919922 C 41.263672 93.046922 41.305638 93.173781 41.369141 93.300781 C 41.432641 93.427781 41.507448 93.533656 41.613281 93.628906 C 41.708531 93.724206 41.814406 93.797828 41.941406 93.861328 C 42.057822 93.924828 42.183548 93.966797 42.310547 93.966797 L 47.328125 93.966797 C 47.455125 93.966797 47.581985 93.924868 47.708984 93.861328 C 47.835984 93.797828 47.941859 93.724157 48.037109 93.628906 C 48.132359 93.533706 48.206031 93.427781 48.269531 93.300781 C 48.333031 93.173781 48.365553 93.046922 48.386719 92.919922 L 48.386719 88.496094 C 48.365549 88.199762 48.247958 87.956125 48.046875 87.765625 C 47.835209 87.575126 47.603291 87.458667 47.328125 87.4375 L 42.310547 87.4375 z M 50.099609 87.4375 C 49.972609 87.45867 49.84575 87.489238 49.71875 87.552734 C 49.591751 87.616234 49.485875 87.691859 49.390625 87.787109 C 49.284792 87.882359 49.211938 87.988235 49.148438 88.115234 C 49.084938 88.242234 49.042969 88.369094 49.042969 88.496094 L 49.042969 89.945312 C 49.042969 90.072312 49.084934 90.199172 49.148438 90.326172 C 49.211937 90.453172 49.285609 90.559047 49.380859 90.654297 C 49.476109 90.749597 49.581984 90.823219 49.708984 90.886719 C 49.835984 90.950219 49.962026 90.992187 50.099609 90.992188 L 53.804688 90.992188 L 53.804688 91.607422 L 49.042969 91.607422 L 49.042969 93.966797 L 55.105469 93.966797 C 55.380635 93.945597 55.614506 93.839763 55.826172 93.638672 C 56.027255 93.437592 56.142895 93.193953 56.164062 92.908203 L 56.164062 90.865234 C 56.142893 90.738234 56.112325 90.623094 56.048828 90.496094 C 55.985328 90.369104 55.911656 90.263219 55.816406 90.167969 C 55.721156 90.072769 55.61528 89.987328 55.488281 89.923828 C 55.361281 89.860328 55.232468 89.828899 55.105469 89.818359 L 51.402344 89.818359 L 51.402344 89.205078 L 56.164062 89.205078 L 56.164062 87.4375 L 50.099609 87.4375 z M 62.123047 87.4375 C 61.996047 87.45867 61.869188 87.489238 61.742188 87.552734 C 61.615189 87.616234 61.509313 87.691859 61.414062 87.787109 C 61.30823 87.882359 61.233422 87.988235 61.169922 88.115234 C 61.106422 88.242234 61.064453 88.369094 61.064453 88.496094 L 61.064453 92.919922 C 61.064453 93.046922 61.106419 93.173781 61.169922 93.300781 C 61.233422 93.427781 61.309047 93.533656 61.404297 93.628906 C 61.499547 93.724206 61.605422 93.797828 61.732422 93.861328 C 61.859422 93.924828 61.985464 93.966797 62.123047 93.966797 L 67.128906 93.966797 C 67.255905 93.966797 67.382766 93.924868 67.509766 93.861328 C 67.636765 93.797828 67.742641 93.724157 67.837891 93.628906 C 67.933141 93.533706 68.006813 93.427781 68.070312 93.300781 C 68.133813 93.173781 68.166333 93.046922 68.1875 92.919922 L 68.1875 89.818359 L 64.664062 89.818359 L 64.664062 90.992188 L 65.828125 90.992188 L 65.828125 91.607422 L 63.425781 91.607422 L 63.425781 89.205078 L 68.1875 89.205078 L 68.1875 87.4375 L 62.123047 87.4375 z M 68.84375 87.4375 L 68.84375 92.919922 C 68.84375 93.046922 68.885716 93.173781 68.949219 93.300781 C 69.012719 93.427781 69.087526 93.533656 69.193359 93.628906 C 69.288609 93.724206 69.394484 93.797828 69.521484 93.861328 C 69.6379 93.924828 69.763625 93.966797 69.890625 93.966797 L 74.908203 93.966797 C 75.035203 93.966797 75.162062 93.924868 75.289062 93.861328 C 75.416061 93.797828 75.521938 93.724157 75.617188 93.628906 C 75.712437 93.533706 75.786109 93.427781 75.849609 93.300781 C 75.913109 93.173781 75.945631 93.046922 75.966797 92.919922 L 75.966797 87.4375 L 73.605469 87.4375 L 73.605469 91.617188 L 71.203125 91.617188 L 71.203125 87.4375 L 68.84375 87.4375 z M 76.623047 87.4375 L 76.623047 93.966797 L 78.992188 93.966797 L 78.992188 87.4375 L 76.623047 87.4375 z M 85.669922 87.4375 L 85.669922 90.580078 C 85.638172 90.855248 85.512447 91.099689 85.300781 91.300781 C 85.078531 91.512491 84.80351 91.607422 84.464844 91.607422 L 82.685547 91.607422 L 82.685547 93.966797 L 84.833984 93.966797 C 85.257316 93.945627 85.661152 93.870826 86.052734 93.722656 C 86.433733 93.585075 86.772026 93.394625 87.068359 93.140625 C 87.364691 92.897205 87.596292 92.601203 87.765625 92.251953 C 87.934957 91.913293 88.03125 91.521803 88.03125 91.087891 L 88.03125 87.4375 L 85.669922 87.4375 z M 89.746094 87.4375 C 89.619095 87.45867 89.492233 87.489238 89.365234 87.552734 C 89.238234 87.616234 89.132359 87.691859 89.037109 87.787109 C 88.931276 87.882359 88.856469 87.988235 88.792969 88.115234 C 88.729469 88.242234 88.6875 88.369094 88.6875 88.496094 L 88.6875 89.945312 C 88.6875 90.072312 88.729467 90.199172 88.792969 90.326172 C 88.856469 90.453172 88.930141 90.559047 89.025391 90.654297 C 89.120641 90.749597 89.226517 90.823219 89.353516 90.886719 C 89.480516 90.950219 89.608512 90.992187 89.746094 90.992188 L 93.449219 90.992188 L 93.449219 91.607422 L 88.6875 91.607422 L 88.6875 93.966797 L 94.751953 93.966797 C 95.027119 93.945597 95.259037 93.839763 95.470703 93.638672 C 95.671785 93.437592 95.789381 93.193953 95.810547 92.908203 L 95.810547 90.865234 C 95.789377 90.738234 95.756855 90.623094 95.693359 90.496094 C 95.629859 90.369104 95.556187 90.263219 95.460938 90.167969 C 95.365688 90.072769 95.259812 89.987328 95.132812 89.923828 C 95.005813 89.860328 94.878953 89.828899 94.751953 89.818359 L 91.046875 89.818359 L 91.046875 89.205078 L 95.810547 89.205078 L 95.810547 87.4375 L 89.746094 87.4375 z M 43.623047 89.205078 L 46.025391 89.205078 L 46.025391 91.617188 L 43.623047 91.617188 L 43.623047 89.205078 z M 56.820312 89.818359 L 56.820312 90.992188 L 60.408203 90.992188 L 60.408203 89.818359 L 56.820312 89.818359 z M 80.833984 91.595703 C 80.664651 91.595703 80.505588 91.627906 80.357422 91.691406 C 80.209256 91.754906 80.094114 91.839472 79.988281 91.945312 C 79.882448 92.051142 79.797875 92.178002 79.734375 92.326172 C 79.670875 92.474332 79.648438 92.6225 79.648438 92.78125 C 79.648438 93.11991 79.755448 93.406656 79.988281 93.628906 C 80.21053 93.861737 80.495318 93.966797 80.833984 93.966797 C 80.992733 93.966797 81.140896 93.946312 81.289062 93.882812 C 81.43723 93.819312 81.564089 93.734737 81.669922 93.628906 C 81.775755 93.523076 81.872047 93.405973 81.935547 93.257812 C 81.999047 93.109643 82.029297 92.95058 82.029297 92.78125 C 82.029297 92.6225 81.999047 92.474332 81.935547 92.326172 C 81.872047 92.178002 81.775755 92.051142 81.669922 91.945312 C 81.564089 91.839472 81.437229 91.754906 81.289062 91.691406 C 81.140896 91.627906 80.992733 91.595703 80.833984 91.595703 z "
       xlink:href="#path9303"
       id="path9487"
       inkscape:href="#path9303"
       d="m 42.310547,87.353516 a 0.08352437,0.08352437 0 0 0 -0.01367,0.002 c -0.130963,0.02183 -0.26699,0.0544 -0.404297,0.123047 -0.134118,0.06706 -0.248108,0.148498 -0.349609,0.25 -0.101906,0.101905 -0.181295,0.216106 -0.248047,0.349609 -0.06687,0.133732 -0.115235,0.27257 -0.115235,0.417969 v 4.423828 c 0,0.145398 0.04836,0.284235 0.115235,0.417969 0.0663,0.132593 0.147288,0.247582 0.259765,0.349609 0.101543,0.101596 0.214805,0.181457 0.347657,0.248047 0.125026,0.0682 0.262804,0.115234 0.408203,0.115234 h 5.017578 c 0.145382,0 0.284215,-0.04832 0.417969,-0.115234 0.133504,-0.06675 0.247704,-0.14614 0.349609,-0.248047 0.101929,-0.101875 0.181299,-0.216113 0.248047,-0.349609 0.06835,-0.136696 0.103036,-0.272509 0.125,-0.404297 a 0.08352437,0.08352437 0 0 0 0.002,-0.01367 v -4.423828 a 0.08352437,0.08352437 0 0 0 0,-0.0059 c -0.0225,-0.315012 -0.152097,-0.581385 -0.367187,-0.785156 a 0.08352437,0.08352437 0 0 0 0,-0.002 c -0.221633,-0.199469 -0.474587,-0.326921 -0.769532,-0.349609 a 0.08352437,0.08352437 0 0 0 -0.0059,0 z m 7.789062,0 a 0.08352437,0.08352437 0 0 0 -0.01367,0.002 c -0.130963,0.02183 -0.266989,0.0544 -0.404296,0.123047 -0.134116,0.06706 -0.248108,0.148498 -0.34961,0.25 -0.112809,0.102364 -0.191819,0.217623 -0.257812,0.349609 -0.06687,0.133732 -0.115235,0.27257 -0.115235,0.417969 v 1.449218 c 0,0.145398 0.04836,0.284235 0.115235,0.417969 0.06675,0.133505 0.146141,0.247704 0.248047,0.34961 0.101921,0.101975 0.21612,0.181302 0.349609,0.248046 0.133604,0.0668 0.273168,0.115234 0.427734,0.115235 h 3.621094 v 0.447265 h -4.677734 a 0.08352437,0.08352437 0 0 0 -0.08398,0.08398 v 2.359375 a 0.08352437,0.08352437 0 0 0 0.08398,0.08398 h 6.0625 a 0.08352437,0.08352437 0 0 0 0.0059,0 c 0.292777,-0.02256 0.548156,-0.139392 0.771484,-0.351562 a 0.08352437,0.08352437 0 0 0 0.002,-0.002 c 0.213613,-0.213611 0.340717,-0.478594 0.363281,-0.783204 a 0.08352437,0.08352437 0 0 0 0,-0.0059 v -2.042969 a 0.08352437,0.08352437 0 0 0 -0.002,-0.01367 c -0.02197,-0.131786 -0.05532,-0.257108 -0.123047,-0.392578 -0.06675,-0.133491 -0.14614,-0.247702 -0.248047,-0.349609 -0.09947,-0.09941 -0.212415,-0.191168 -0.349609,-0.259766 -0.137345,-0.06867 -0.276112,-0.103947 -0.41211,-0.115234 a 0.08352437,0.08352437 0 0 0 -0.0078,0 h -3.619141 v -0.445313 h 4.677734 a 0.08352437,0.08352437 0 0 0 0.08398,-0.08398 V 87.4375 a 0.08352437,0.08352437 0 0 0 -0.08398,-0.08398 z m 12.023438,0 a 0.08352437,0.08352437 0 0 0 -0.01367,0.002 c -0.130964,0.02183 -0.266989,0.0544 -0.404297,0.123047 -0.134115,0.06706 -0.248107,0.148498 -0.349609,0.25 -0.112477,0.102026 -0.193469,0.217016 -0.259766,0.349609 -0.06687,0.133732 -0.115234,0.27257 -0.115234,0.417969 v 4.423828 c 0,0.145398 0.04836,0.284235 0.115234,0.417969 0.06706,0.134116 0.148499,0.248107 0.25,0.349609 0.101922,0.101975 0.216121,0.181303 0.349609,0.248047 0.133604,0.0668 0.273168,0.115234 0.427735,0.115234 h 5.005859 c 0.145381,0 0.284214,-0.04832 0.417969,-0.115234 0.133503,-0.06675 0.247704,-0.14614 0.349609,-0.248047 0.101929,-0.101875 0.1813,-0.216113 0.248047,-0.349609 0.06835,-0.136697 0.103035,-0.272511 0.125,-0.404297 a 0.08352437,0.08352437 0 0 0 0.002,-0.01367 v -3.101563 a 0.08352437,0.08352437 0 0 0 -0.08398,-0.08398 h -3.523438 a 0.08352437,0.08352437 0 0 0 -0.08398,0.08398 v 1.173828 a 0.08352437,0.08352437 0 0 0 0.08398,0.08398 h 1.080079 v 0.447265 H 63.509766 V 89.289062 H 68.1875 a 0.08352437,0.08352437 0 0 0 0.08398,-0.08398 V 87.4375 a 0.08352437,0.08352437 0 0 0 -0.08398,-0.08398 z m 6.720703,0 a 0.08352437,0.08352437 0 0 0 -0.08398,0.08398 v 5.482422 c 0,0.145398 0.04836,0.284235 0.115234,0.417969 0.0663,0.132593 0.147288,0.247582 0.259766,0.349609 0.101921,0.101975 0.21612,0.181303 0.349609,0.248047 0.12461,0.06773 0.261469,0.115234 0.40625,0.115234 h 5.017578 c 0.145382,0 0.284214,-0.04832 0.417969,-0.115234 0.133502,-0.06675 0.247703,-0.14614 0.349609,-0.248047 0.101928,-0.101875 0.181299,-0.216113 0.248047,-0.349609 0.06835,-0.136696 0.103036,-0.272509 0.125,-0.404297 a 0.08352437,0.08352437 0 0 0 0.002,-0.01367 V 87.4375 a 0.08352437,0.08352437 0 0 0 -0.08398,-0.08398 h -2.361328 a 0.08352437,0.08352437 0 0 0 -0.08398,0.08398 v 4.095703 H 71.287109 V 87.4375 a 0.08352437,0.08352437 0 0 0 -0.08398,-0.08398 z m 7.779297,0 a 0.08352437,0.08352437 0 0 0 -0.08398,0.08398 v 6.529297 a 0.08352437,0.08352437 0 0 0 0.08398,0.08398 h 2.36914 a 0.08352437,0.08352437 0 0 0 0.08398,-0.08398 V 87.4375 a 0.08352437,0.08352437 0 0 0 -0.08398,-0.08398 z m 9.046875,0 a 0.08352437,0.08352437 0 0 0 -0.08398,0.08398 v 3.138672 0.0039 c -0.03136,0.25164 -0.145286,0.473463 -0.341796,0.660156 -0.206364,0.196578 -0.456238,0.283203 -0.779297,0.283203 h -1.779297 a 0.08352437,0.08352437 0 0 0 -0.08398,0.08398 v 2.359375 a 0.08352437,0.08352437 0 0 0 0.08398,0.08398 h 2.148437 a 0.08352437,0.08352437 0 0 0 0.0039,0 c 0.430486,-0.02153 0.843484,-0.0984 1.24414,-0.25 0.388418,-0.14026 0.735042,-0.335578 1.039063,-0.595703 l 0.002,-0.002 c 0.304469,-0.250619 0.542915,-0.55543 0.716797,-0.914063 0.175181,-0.350359 0.27539,-0.754904 0.27539,-1.201171 V 87.4375 a 0.08352437,0.08352437 0 0 0 -0.08398,-0.08398 z m 4.076172,0 a 0.08352437,0.08352437 0 0 0 -0.01367,0.002 c -0.130963,0.02183 -0.26699,0.0544 -0.404297,0.123047 -0.134117,0.06706 -0.248108,0.148498 -0.349609,0.25 -0.112478,0.102026 -0.193469,0.217016 -0.259766,0.349609 -0.06687,0.133732 -0.115234,0.27257 -0.115234,0.417969 v 1.449218 c 0,0.145399 0.04837,0.284236 0.115234,0.417969 0.06675,0.133504 0.146142,0.247704 0.248047,0.34961 0.101922,0.101975 0.216122,0.181302 0.349609,0.248046 0.133911,0.06696 0.275122,0.115234 0.429688,0.115235 h 3.61914 v 0.447265 H 88.6875 a 0.08352437,0.08352437 0 0 0 -0.08398,0.08398 v 2.359375 a 0.08352437,0.08352437 0 0 0 0.08398,0.08398 h 6.064453 a 0.08352437,0.08352437 0 0 0 0.0059,0 c 0.292808,-0.02256 0.546389,-0.139568 0.769532,-0.351562 a 0.08352437,0.08352437 0 0 0 0.002,-0.002 c 0.213421,-0.213419 0.342643,-0.478216 0.365234,-0.783204 a 0.08352437,0.08352437 0 0 0 0,-0.0059 v -2.042969 a 0.08352437,0.08352437 0 0 0 -0.002,-0.01367 c -0.0221,-0.132607 -0.05758,-0.257721 -0.125,-0.392578 -0.06675,-0.133491 -0.146141,-0.247702 -0.248047,-0.349609 -0.09946,-0.09941 -0.212413,-0.191168 -0.349609,-0.259766 -0.137038,-0.06852 -0.274087,-0.103941 -0.410156,-0.115234 a 0.08352437,0.08352437 0 0 0 -0.0078,0 h -3.621094 v -0.445313 h 4.679688 a 0.08352437,0.08352437 0 0 0 0.08398,-0.08398 V 87.4375 a 0.08352437,0.08352437 0 0 0 -0.08398,-0.08398 z m -46.039063,1.935546 h 2.234375 v 2.244141 h -2.234375 z m 13.113281,0.445313 a 0.08352437,0.08352437 0 0 0 -0.08398,0.08398 v 1.173828 a 0.08352437,0.08352437 0 0 0 0.08398,0.08398 h 3.587891 a 0.08352437,0.08352437 0 0 0 0.08398,-0.08398 v -1.173828 a 0.08352437,0.08352437 0 0 0 -0.08398,-0.08398 z m 24.013672,1.777344 c -0.179921,0 -0.351104,0.03552 -0.509765,0.103515 -0.158443,0.0679 -0.283011,0.159957 -0.394532,0.271485 -0.113699,0.113696 -0.204207,0.249266 -0.271484,0.40625 -0.06864,0.160143 -0.09375,0.321662 -0.09375,0.488281 0,0.355281 0.115146,0.668291 0.363281,0.90625 3.54e-4,3.71e-4 0.0016,-3.7e-4 0.002,0 3.7e-4,3.54e-4 -3.7e-4,0.0016 0,0.002 0.23794,0.248105 0.549336,0.361328 0.904297,0.361328 0.165934,0 0.327565,-0.02292 0.488282,-0.0918 0.156982,-0.06728 0.292552,-0.157789 0.40625,-0.271484 0.109704,-0.109701 0.213937,-0.234871 0.283203,-0.396484 0.06824,-0.159234 0.101562,-0.33049 0.101562,-0.509766 0,-0.169359 -0.0339,-0.330418 -0.101562,-0.488281 -0.06874,-0.160403 -0.171684,-0.294734 -0.283203,-0.40625 -0.113701,-0.113708 -0.249272,-0.204208 -0.40625,-0.271485 -0.157298,-0.06741 -0.318238,-0.103515 -0.488282,-0.103515 z"
       inkscape:label="Text outline" />
    <path
       style="font-size:10.5833px;line-height:1.25;font-family:LaserCorps;-inkscape-font-specification:LaserCorps;letter-spacing:0px;word-spacing:0px;display:inline;fill:#000000;stroke-width:0.264583"
       sodipodi:type="inkscape:offset"
       inkscape:radius="0.083516017"
       inkscape:original="M 42.310547 87.4375 C 42.183548 87.45867 42.056686 87.489238 41.929688 87.552734 C 41.802687 87.616234 41.696812 87.691859 41.601562 87.787109 C 41.506312 87.882359 41.432641 87.988235 41.369141 88.115234 C 41.305641 88.242234 41.263672 88.369094 41.263672 88.496094 L 41.263672 92.919922 C 41.263672 93.046922 41.305638 93.173781 41.369141 93.300781 C 41.432641 93.427781 41.507448 93.533656 41.613281 93.628906 C 41.708531 93.724206 41.814406 93.797828 41.941406 93.861328 C 42.057822 93.924828 42.183548 93.966797 42.310547 93.966797 L 47.328125 93.966797 C 47.455125 93.966797 47.581985 93.924868 47.708984 93.861328 C 47.835984 93.797828 47.941859 93.724157 48.037109 93.628906 C 48.132359 93.533706 48.206031 93.427781 48.269531 93.300781 C 48.333031 93.173781 48.365553 93.046922 48.386719 92.919922 L 48.386719 88.496094 C 48.365549 88.199762 48.247958 87.956125 48.046875 87.765625 C 47.835209 87.575126 47.603291 87.458667 47.328125 87.4375 L 42.310547 87.4375 z M 50.099609 87.4375 C 49.972609 87.45867 49.84575 87.489238 49.71875 87.552734 C 49.591751 87.616234 49.485875 87.691859 49.390625 87.787109 C 49.284792 87.882359 49.211938 87.988235 49.148438 88.115234 C 49.084938 88.242234 49.042969 88.369094 49.042969 88.496094 L 49.042969 89.945312 C 49.042969 90.072312 49.084934 90.199172 49.148438 90.326172 C 49.211937 90.453172 49.285609 90.559047 49.380859 90.654297 C 49.476109 90.749597 49.581984 90.823219 49.708984 90.886719 C 49.835984 90.950219 49.962026 90.992187 50.099609 90.992188 L 53.804688 90.992188 L 53.804688 91.607422 L 49.042969 91.607422 L 49.042969 93.966797 L 55.105469 93.966797 C 55.380635 93.945597 55.614506 93.839763 55.826172 93.638672 C 56.027255 93.437592 56.142895 93.193953 56.164062 92.908203 L 56.164062 90.865234 C 56.142893 90.738234 56.112325 90.623094 56.048828 90.496094 C 55.985328 90.369104 55.911656 90.263219 55.816406 90.167969 C 55.721156 90.072769 55.61528 89.987328 55.488281 89.923828 C 55.361281 89.860328 55.232468 89.828899 55.105469 89.818359 L 51.402344 89.818359 L 51.402344 89.205078 L 56.164062 89.205078 L 56.164062 87.4375 L 50.099609 87.4375 z M 62.123047 87.4375 C 61.996047 87.45867 61.869188 87.489238 61.742188 87.552734 C 61.615189 87.616234 61.509313 87.691859 61.414062 87.787109 C 61.30823 87.882359 61.233422 87.988235 61.169922 88.115234 C 61.106422 88.242234 61.064453 88.369094 61.064453 88.496094 L 61.064453 92.919922 C 61.064453 93.046922 61.106419 93.173781 61.169922 93.300781 C 61.233422 93.427781 61.309047 93.533656 61.404297 93.628906 C 61.499547 93.724206 61.605422 93.797828 61.732422 93.861328 C 61.859422 93.924828 61.985464 93.966797 62.123047 93.966797 L 67.128906 93.966797 C 67.255905 93.966797 67.382766 93.924868 67.509766 93.861328 C 67.636765 93.797828 67.742641 93.724157 67.837891 93.628906 C 67.933141 93.533706 68.006813 93.427781 68.070312 93.300781 C 68.133813 93.173781 68.166333 93.046922 68.1875 92.919922 L 68.1875 89.818359 L 64.664062 89.818359 L 64.664062 90.992188 L 65.828125 90.992188 L 65.828125 91.607422 L 63.425781 91.607422 L 63.425781 89.205078 L 68.1875 89.205078 L 68.1875 87.4375 L 62.123047 87.4375 z M 68.84375 87.4375 L 68.84375 92.919922 C 68.84375 93.046922 68.885716 93.173781 68.949219 93.300781 C 69.012719 93.427781 69.087526 93.533656 69.193359 93.628906 C 69.288609 93.724206 69.394484 93.797828 69.521484 93.861328 C 69.6379 93.924828 69.763625 93.966797 69.890625 93.966797 L 74.908203 93.966797 C 75.035203 93.966797 75.162062 93.924868 75.289062 93.861328 C 75.416061 93.797828 75.521938 93.724157 75.617188 93.628906 C 75.712437 93.533706 75.786109 93.427781 75.849609 93.300781 C 75.913109 93.173781 75.945631 93.046922 75.966797 92.919922 L 75.966797 87.4375 L 73.605469 87.4375 L 73.605469 91.617188 L 71.203125 91.617188 L 71.203125 87.4375 L 68.84375 87.4375 z M 76.623047 87.4375 L 76.623047 93.966797 L 78.992188 93.966797 L 78.992188 87.4375 L 76.623047 87.4375 z M 85.669922 87.4375 L 85.669922 90.580078 C 85.638172 90.855248 85.512447 91.099689 85.300781 91.300781 C 85.078531 91.512491 84.80351 91.607422 84.464844 91.607422 L 82.685547 91.607422 L 82.685547 93.966797 L 84.833984 93.966797 C 85.257316 93.945627 85.661152 93.870826 86.052734 93.722656 C 86.433733 93.585075 86.772026 93.394625 87.068359 93.140625 C 87.364691 92.897205 87.596292 92.601203 87.765625 92.251953 C 87.934957 91.913293 88.03125 91.521803 88.03125 91.087891 L 88.03125 87.4375 L 85.669922 87.4375 z M 89.746094 87.4375 C 89.619095 87.45867 89.492233 87.489238 89.365234 87.552734 C 89.238234 87.616234 89.132359 87.691859 89.037109 87.787109 C 88.931276 87.882359 88.856469 87.988235 88.792969 88.115234 C 88.729469 88.242234 88.6875 88.369094 88.6875 88.496094 L 88.6875 89.945312 C 88.6875 90.072312 88.729467 90.199172 88.792969 90.326172 C 88.856469 90.453172 88.930141 90.559047 89.025391 90.654297 C 89.120641 90.749597 89.226517 90.823219 89.353516 90.886719 C 89.480516 90.950219 89.608512 90.992187 89.746094 90.992188 L 93.449219 90.992188 L 93.449219 91.607422 L 88.6875 91.607422 L 88.6875 93.966797 L 94.751953 93.966797 C 95.027119 93.945597 95.259037 93.839763 95.470703 93.638672 C 95.671785 93.437592 95.789381 93.193953 95.810547 92.908203 L 95.810547 90.865234 C 95.789377 90.738234 95.756855 90.623094 95.693359 90.496094 C 95.629859 90.369104 95.556187 90.263219 95.460938 90.167969 C 95.365688 90.072769 95.259812 89.987328 95.132812 89.923828 C 95.005813 89.860328 94.878953 89.828899 94.751953 89.818359 L 91.046875 89.818359 L 91.046875 89.205078 L 95.810547 89.205078 L 95.810547 87.4375 L 89.746094 87.4375 z M 43.623047 89.205078 L 46.025391 89.205078 L 46.025391 91.617188 L 43.623047 91.617188 L 43.623047 89.205078 z M 56.820312 89.818359 L 56.820312 90.992188 L 60.408203 90.992188 L 60.408203 89.818359 L 56.820312 89.818359 z M 80.833984 91.595703 C 80.664651 91.595703 80.505588 91.627906 80.357422 91.691406 C 80.209256 91.754906 80.094114 91.839472 79.988281 91.945312 C 79.882448 92.051142 79.797875 92.178002 79.734375 92.326172 C 79.670875 92.474332 79.648438 92.6225 79.648438 92.78125 C 79.648438 93.11991 79.755448 93.406656 79.988281 93.628906 C 80.21053 93.861737 80.495318 93.966797 80.833984 93.966797 C 80.992733 93.966797 81.140896 93.946312 81.289062 93.882812 C 81.43723 93.819312 81.564089 93.734737 81.669922 93.628906 C 81.775755 93.523076 81.872047 93.405973 81.935547 93.257812 C 81.999047 93.109643 82.029297 92.95058 82.029297 92.78125 C 82.029297 92.6225 81.999047 92.474332 81.935547 92.326172 C 81.872047 92.178002 81.775755 92.051142 81.669922 91.945312 C 81.564089 91.839472 81.437229 91.754906 81.289062 91.691406 C 81.140896 91.627906 80.992733 91.595703 80.833984 91.595703 z "
       xlink:href="#path9303"
       id="path9487-3"
       inkscape:href="#path9303"
       d="m 42.310547,87.353516 a 0.08352437,0.08352437 0 0 0 -0.01367,0.002 c -0.130963,0.02183 -0.26699,0.0544 -0.404297,0.123047 -0.134118,0.06706 -0.248108,0.148498 -0.349609,0.25 -0.101906,0.101905 -0.181295,0.216106 -0.248047,0.349609 -0.06687,0.133732 -0.115235,0.27257 -0.115235,0.417969 v 4.423828 c 0,0.145398 0.04836,0.284235 0.115235,0.417969 0.0663,0.132593 0.147288,0.247582 0.259765,0.349609 0.101543,0.101596 0.214805,0.181457 0.347657,0.248047 0.125026,0.0682 0.262804,0.115234 0.408203,0.115234 h 5.017578 c 0.145382,0 0.284215,-0.04832 0.417969,-0.115234 0.133504,-0.06675 0.247704,-0.14614 0.349609,-0.248047 0.101929,-0.101875 0.181299,-0.216113 0.248047,-0.349609 0.06835,-0.136696 0.103036,-0.272509 0.125,-0.404297 a 0.08352437,0.08352437 0 0 0 0.002,-0.01367 v -4.423828 a 0.08352437,0.08352437 0 0 0 0,-0.0059 c -0.0225,-0.315012 -0.152097,-0.581385 -0.367187,-0.785156 a 0.08352437,0.08352437 0 0 0 0,-0.002 c -0.221633,-0.199469 -0.474587,-0.326921 -0.769532,-0.349609 a 0.08352437,0.08352437 0 0 0 -0.0059,0 z m 7.789062,0 a 0.08352437,0.08352437 0 0 0 -0.01367,0.002 c -0.130963,0.02183 -0.266989,0.0544 -0.404296,0.123047 -0.134116,0.06706 -0.248108,0.148498 -0.34961,0.25 -0.112809,0.102364 -0.191819,0.217623 -0.257812,0.349609 -0.06687,0.133732 -0.115235,0.27257 -0.115235,0.417969 v 1.449218 c 0,0.145398 0.04836,0.284235 0.115235,0.417969 0.06675,0.133505 0.146141,0.247704 0.248047,0.34961 0.101921,0.101975 0.21612,0.181302 0.349609,0.248046 0.133604,0.0668 0.273168,0.115234 0.427734,0.115235 h 3.621094 v 0.447265 h -4.677734 a 0.08352437,0.08352437 0 0 0 -0.08398,0.08398 v 2.359375 a 0.08352437,0.08352437 0 0 0 0.08398,0.08398 h 6.0625 a 0.08352437,0.08352437 0 0 0 0.0059,0 c 0.292777,-0.02256 0.548156,-0.139392 0.771484,-0.351562 a 0.08352437,0.08352437 0 0 0 0.002,-0.002 c 0.213613,-0.213611 0.340717,-0.478594 0.363281,-0.783204 a 0.08352437,0.08352437 0 0 0 0,-0.0059 v -2.042969 a 0.08352437,0.08352437 0 0 0 -0.002,-0.01367 c -0.02197,-0.131786 -0.05532,-0.257108 -0.123047,-0.392578 -0.06675,-0.133491 -0.14614,-0.247702 -0.248047,-0.349609 -0.09947,-0.09941 -0.212415,-0.191168 -0.349609,-0.259766 -0.137345,-0.06867 -0.276112,-0.103947 -0.41211,-0.115234 a 0.08352437,0.08352437 0 0 0 -0.0078,0 h -3.619141 v -0.445313 h 4.677734 a 0.08352437,0.08352437 0 0 0 0.08398,-0.08398 V 87.4375 a 0.08352437,0.08352437 0 0 0 -0.08398,-0.08398 z m 12.023438,0 a 0.08352437,0.08352437 0 0 0 -0.01367,0.002 c -0.130964,0.02183 -0.266989,0.0544 -0.404297,0.123047 -0.134115,0.06706 -0.248107,0.148498 -0.349609,0.25 -0.112477,0.102026 -0.193469,0.217016 -0.259766,0.349609 -0.06687,0.133732 -0.115234,0.27257 -0.115234,0.417969 v 4.423828 c 0,0.145398 0.04836,0.284235 0.115234,0.417969 0.06706,0.134116 0.148499,0.248107 0.25,0.349609 0.101922,0.101975 0.216121,0.181303 0.349609,0.248047 0.133604,0.0668 0.273168,0.115234 0.427735,0.115234 h 5.005859 c 0.145381,0 0.284214,-0.04832 0.417969,-0.115234 0.133503,-0.06675 0.247704,-0.14614 0.349609,-0.248047 0.101929,-0.101875 0.1813,-0.216113 0.248047,-0.349609 0.06835,-0.136697 0.103035,-0.272511 0.125,-0.404297 a 0.08352437,0.08352437 0 0 0 0.002,-0.01367 v -3.101563 a 0.08352437,0.08352437 0 0 0 -0.08398,-0.08398 h -3.523438 a 0.08352437,0.08352437 0 0 0 -0.08398,0.08398 v 1.173828 a 0.08352437,0.08352437 0 0 0 0.08398,0.08398 h 1.080079 v 0.447265 H 63.509766 V 89.289062 H 68.1875 a 0.08352437,0.08352437 0 0 0 0.08398,-0.08398 V 87.4375 a 0.08352437,0.08352437 0 0 0 -0.08398,-0.08398 z m 6.720703,0 a 0.08352437,0.08352437 0 0 0 -0.08398,0.08398 v 5.482422 c 0,0.145398 0.04836,0.284235 0.115234,0.417969 0.0663,0.132593 0.147288,0.247582 0.259766,0.349609 0.101921,0.101975 0.21612,0.181303 0.349609,0.248047 0.12461,0.06773 0.261469,0.115234 0.40625,0.115234 h 5.017578 c 0.145382,0 0.284214,-0.04832 0.417969,-0.115234 0.133502,-0.06675 0.247703,-0.14614 0.349609,-0.248047 0.101928,-0.101875 0.181299,-0.216113 0.248047,-0.349609 0.06835,-0.136696 0.103036,-0.272509 0.125,-0.404297 a 0.08352437,0.08352437 0 0 0 0.002,-0.01367 V 87.4375 a 0.08352437,0.08352437 0 0 0 -0.08398,-0.08398 h -2.361328 a 0.08352437,0.08352437 0 0 0 -0.08398,0.08398 v 4.095703 H 71.287109 V 87.4375 a 0.08352437,0.08352437 0 0 0 -0.08398,-0.08398 z m 7.779297,0 a 0.08352437,0.08352437 0 0 0 -0.08398,0.08398 v 6.529297 a 0.08352437,0.08352437 0 0 0 0.08398,0.08398 h 2.36914 a 0.08352437,0.08352437 0 0 0 0.08398,-0.08398 V 87.4375 a 0.08352437,0.08352437 0 0 0 -0.08398,-0.08398 z m 9.046875,0 a 0.08352437,0.08352437 0 0 0 -0.08398,0.08398 v 3.138672 0.0039 c -0.03136,0.25164 -0.145286,0.473463 -0.341796,0.660156 -0.206364,0.196578 -0.456238,0.283203 -0.779297,0.283203 h -1.779297 a 0.08352437,0.08352437 0 0 0 -0.08398,0.08398 v 2.359375 a 0.08352437,0.08352437 0 0 0 0.08398,0.08398 h 2.148437 a 0.08352437,0.08352437 0 0 0 0.0039,0 c 0.430486,-0.02153 0.843484,-0.0984 1.24414,-0.25 0.388418,-0.14026 0.735042,-0.335578 1.039063,-0.595703 l 0.002,-0.002 c 0.304469,-0.250619 0.542915,-0.55543 0.716797,-0.914063 0.175181,-0.350359 0.27539,-0.754904 0.27539,-1.201171 V 87.4375 a 0.08352437,0.08352437 0 0 0 -0.08398,-0.08398 z m 4.076172,0 a 0.08352437,0.08352437 0 0 0 -0.01367,0.002 c -0.130963,0.02183 -0.26699,0.0544 -0.404297,0.123047 -0.134117,0.06706 -0.248108,0.148498 -0.349609,0.25 -0.112478,0.102026 -0.193469,0.217016 -0.259766,0.349609 -0.06687,0.133732 -0.115234,0.27257 -0.115234,0.417969 v 1.449218 c 0,0.145399 0.04837,0.284236 0.115234,0.417969 0.06675,0.133504 0.146142,0.247704 0.248047,0.34961 0.101922,0.101975 0.216122,0.181302 0.349609,0.248046 0.133911,0.06696 0.275122,0.115234 0.429688,0.115235 h 3.61914 v 0.447265 H 88.6875 a 0.08352437,0.08352437 0 0 0 -0.08398,0.08398 v 2.359375 a 0.08352437,0.08352437 0 0 0 0.08398,0.08398 h 6.064453 a 0.08352437,0.08352437 0 0 0 0.0059,0 c 0.292808,-0.02256 0.546389,-0.139568 0.769532,-0.351562 a 0.08352437,0.08352437 0 0 0 0.002,-0.002 c 0.213421,-0.213419 0.342643,-0.478216 0.365234,-0.783204 a 0.08352437,0.08352437 0 0 0 0,-0.0059 v -2.042969 a 0.08352437,0.08352437 0 0 0 -0.002,-0.01367 c -0.0221,-0.132607 -0.05758,-0.257721 -0.125,-0.392578 -0.06675,-0.133491 -0.146141,-0.247702 -0.248047,-0.349609 -0.09946,-0.09941 -0.212413,-0.191168 -0.349609,-0.259766 -0.137038,-0.06852 -0.274087,-0.103941 -0.410156,-0.115234 a 0.08352437,0.08352437 0 0 0 -0.0078,0 h -3.621094 v -0.445313 h 4.679688 a 0.08352437,0.08352437 0 0 0 0.08398,-0.08398 V 87.4375 a 0.08352437,0.08352437 0 0 0 -0.08398,-0.08398 z m -46.039063,1.935546 h 2.234375 v 2.244141 h -2.234375 z m 13.113281,0.445313 a 0.08352437,0.08352437 0 0 0 -0.08398,0.08398 v 1.173828 a 0.08352437,0.08352437 0 0 0 0.08398,0.08398 h 3.587891 a 0.08352437,0.08352437 0 0 0 0.08398,-0.08398 v -1.173828 a 0.08352437,0.08352437 0 0 0 -0.08398,-0.08398 z m 24.013672,1.777344 c -0.179921,0 -0.351104,0.03552 -0.509765,0.103515 -0.158443,0.0679 -0.283011,0.159957 -0.394532,0.271485 -0.113699,0.113696 -0.204207,0.249266 -0.271484,0.40625 -0.06864,0.160143 -0.09375,0.321662 -0.09375,0.488281 0,0.355281 0.115146,0.668291 0.363281,0.90625 3.54e-4,3.71e-4 0.0016,-3.7e-4 0.002,0 3.7e-4,3.54e-4 -3.7e-4,0.0016 0,0.002 0.23794,0.248105 0.549336,0.361328 0.904297,0.361328 0.165934,0 0.327565,-0.02292 0.488282,-0.0918 0.156982,-0.06728 0.292552,-0.157789 0.40625,-0.271484 0.109704,-0.109701 0.213937,-0.234871 0.283203,-0.396484 0.06824,-0.159234 0.101562,-0.33049 0.101562,-0.509766 0,-0.169359 -0.0339,-0.330418 -0.101562,-0.488281 -0.06874,-0.160403 -0.171684,-0.294734 -0.283203,-0.40625 -0.113701,-0.113708 -0.249272,-0.204208 -0.40625,-0.271485 -0.157298,-0.06741 -0.318238,-0.103515 -0.488282,-0.103515 z"
       transform="translate(-0.5291667,0.52916663)"
       inkscape:label="Text shadow" />
    <path
       id="path9303"
       style="font-size:10.5833px;line-height:1.25;font-family:LaserCorps;-inkscape-font-specification:LaserCorps;letter-spacing:0px;word-spacing:0px;display:inline;fill:#cccccc;stroke-width:0.264583"
       d="m 94.751357,89.818183 h -3.704155 v -0.613828 h 4.762485 v -1.767411 h -6.064231 c -0.126999,0.02117 -0.253999,0.05292 -0.380998,0.116416 -0.127,0.0635 -0.232833,0.137583 -0.328083,0.232833 -0.105833,0.09525 -0.179916,0.201083 -0.243416,0.328082 -0.0635,0.127 -0.105832,0.253999 -0.105832,0.380999 v 1.449909 c 0,0.127 0.04233,0.254 0.105832,0.381 0.0635,0.127 0.137583,0.23283 0.232833,0.32808 0.09525,0.0953 0.201083,0.16934 0.328082,0.23284 0.127,0.0635 0.254,0.10583 0.391582,0.10583 h 3.704155 v 0.613832 h -4.762484 v 2.360081 h 6.06423 c 0.275166,-0.0212 0.507999,-0.127 0.719665,-0.328091 0.201082,-0.20108 0.317499,-0.44449 0.338665,-0.73024 v -2.042582 c -0.02117,-0.127 -0.05292,-0.24342 -0.116416,-0.37042 -0.0635,-0.12699 -0.137583,-0.23283 -0.232833,-0.32808 -0.09525,-0.0952 -0.201082,-0.17991 -0.328082,-0.24341 -0.127,-0.0635 -0.253999,-0.0953 -0.380999,-0.10584 z m -9.916545,4.148663 h -2.14841 v -2.360081 h 1.777994 c 0.338666,0 0.613831,-0.0952 0.836081,-0.30691 0.211666,-0.201092 0.338665,-0.444502 0.370415,-0.719672 v -3.143239 h 2.360076 v 3.651239 c 0,0.433912 -0.09525,0.825502 -0.264582,1.164162 -0.169333,0.34925 -0.402166,0.64558 -0.698498,0.889 -0.296333,0.254 -0.634998,0.4445 -1.015997,0.582081 -0.391582,0.14817 -0.793747,0.22225 -1.217079,0.24342 z M 79.64901,92.781515 c 0,0.33866 0.105833,0.62441 0.338666,0.84666 0.222249,0.232831 0.507998,0.338671 0.846664,0.338671 0.158749,0 0.306915,-0.0212 0.455081,-0.0847 0.148167,-0.0635 0.275166,-0.14817 0.380999,-0.254001 0.105833,-0.10583 0.201083,-0.22225 0.264583,-0.37041 0.0635,-0.14817 0.09525,-0.30692 0.09525,-0.47625 0,-0.15875 -0.03175,-0.30692 -0.09525,-0.45508 -0.0635,-0.14817 -0.15875,-0.27517 -0.264583,-0.381 -0.105833,-0.10584 -0.232832,-0.1905 -0.380999,-0.254 -0.148166,-0.0635 -0.296332,-0.0952 -0.455081,-0.0952 -0.169333,0 -0.328083,0.0317 -0.476249,0.0952 -0.148166,0.0635 -0.264582,0.14816 -0.370415,0.254 -0.105833,0.10583 -0.1905,0.23283 -0.254,0.381 -0.0635,0.14816 -0.08467,0.29633 -0.08467,0.45508 z m -0.656158,1.185331 h -2.370659 v -6.529902 h 2.370659 z m -5.386886,-2.349501 h -2.402409 v -4.180401 h -2.360076 v 5.482151 c 0,0.127 0.04233,0.254 0.105833,0.381 0.0635,0.127 0.137583,0.23283 0.243416,0.32808 0.09525,0.0953 0.201083,0.169331 0.328083,0.232831 0.116416,0.0635 0.243415,0.10584 0.370415,0.10584 h 5.016484 c 0.127,0 0.253999,-0.0423 0.380999,-0.10584 0.126999,-0.0635 0.232832,-0.13758 0.328082,-0.232831 0.09525,-0.0952 0.169333,-0.20108 0.232833,-0.32808 0.0635,-0.127 0.09525,-0.254 0.116416,-0.381 v -5.482151 h -2.360076 z m -5.418635,-1.799162 h -3.524239 v 1.17475 h 1.164163 v 0.613832 h -2.402409 v -2.40241 h 4.762485 V 87.436944 H 62.1231 c -0.127,0.02117 -0.253999,0.05292 -0.380999,0.116416 -0.126999,0.0635 -0.232832,0.137583 -0.328082,0.232833 -0.105833,0.09525 -0.179916,0.201083 -0.243416,0.328082 -0.0635,0.127 -0.105833,0.253999 -0.105833,0.380999 v 4.423821 c 0,0.127 0.04233,0.254 0.105833,0.381 0.0635,0.127 0.137583,0.23283 0.232833,0.32808 0.09525,0.0953 0.201082,0.169331 0.328082,0.232831 0.127,0.0635 0.253999,0.10584 0.391582,0.10584 h 5.005901 c 0.126999,0 0.253999,-0.0423 0.380999,-0.10584 0.126999,-0.0635 0.232832,-0.13758 0.328082,-0.232831 0.09525,-0.0952 0.169333,-0.20108 0.232832,-0.32808 0.0635,-0.127 0.09525,-0.254 0.116417,-0.381 z m -7.778715,1.17475 h -3.587739 v -1.17475 h 3.587739 z m -5.302219,-1.17475 h -3.704155 v -0.613828 h 4.762485 v -1.767411 h -6.064231 c -0.127,0.02117 -0.253999,0.05292 -0.380999,0.116416 -0.126999,0.0635 -0.232832,0.137583 -0.328082,0.232833 -0.105833,0.09525 -0.179916,0.201083 -0.243416,0.328082 -0.0635,0.127 -0.105833,0.253999 -0.105833,0.380999 v 1.449909 c 0,0.127 0.04233,0.254 0.105833,0.381 0.0635,0.127 0.137583,0.23283 0.232833,0.32808 0.09525,0.0953 0.201082,0.16934 0.328082,0.23284 0.127,0.0635 0.253999,0.10583 0.391582,0.10583 h 3.704155 v 0.613832 h -4.762485 v 2.360081 h 6.064231 c 0.275166,-0.0212 0.507998,-0.127 0.719664,-0.328091 0.201083,-0.20108 0.317499,-0.44449 0.338666,-0.73024 v -2.042582 c -0.02117,-0.127 -0.05292,-0.24342 -0.116417,-0.37042 -0.0635,-0.12699 -0.137582,-0.23283 -0.232832,-0.32808 -0.09525,-0.0952 -0.201083,-0.17991 -0.328082,-0.24341 -0.127,-0.0635 -0.254,-0.0953 -0.380999,-0.10584 z m -12.795196,4.148663 h 5.016484 c 0.127,0 0.254,-0.0423 0.380999,-0.10584 0.127,-0.0635 0.232833,-0.13758 0.328083,-0.232831 0.09525,-0.0952 0.169332,-0.20108 0.232832,-0.32808 0.0635,-0.127 0.09525,-0.254 0.116416,-0.381 v -4.423821 c -0.02117,-0.296332 -0.137582,-0.539748 -0.338665,-0.730248 -0.211666,-0.190499 -0.444499,-0.306915 -0.719665,-0.328082 h -5.016484 c -0.126999,0.02117 -0.253999,0.05292 -0.380998,0.116416 -0.127,0.0635 -0.232833,0.137583 -0.328083,0.232833 -0.09525,0.09525 -0.169332,0.201083 -0.232832,0.328082 -0.0635,0.127 -0.105833,0.253999 -0.105833,0.380999 v 4.423821 c 0,0.127 0.04233,0.254 0.105833,0.381 0.0635,0.127 0.137583,0.23283 0.243416,0.32808 0.09525,0.0953 0.201082,0.169331 0.328082,0.232831 0.116416,0.0635 0.243416,0.10584 0.370415,0.10584 z m 3.714739,-2.349501 h -2.402409 v -2.41299 h 2.402409 z"
       inkscape:label="Text surface" />
    <g
       id="g10046"
       style="fill-opacity:1;fill:url(#linearGradient10084)"
       inkscape:label="Titlebars">
      <path
         id="path30312"
         style="font-size:10.5833px;line-height:1.25;font-family:LaserCorps;-inkscape-font-specification:LaserCorps;white-space:pre;inline-size:92.3848;fill:url(#linearGradient10084);stroke-width:0.264583;fill-opacity:1.0"
         d="m 89.745423,87.419098 c -0.127,0.02117 -0.253854,0.05277 -0.380854,0.116272 -0.127,0.0635 -0.232897,0.137811 -0.328147,0.23306 -0.105831,0.09525 -0.179895,0.201147 -0.243395,0.328146 -0.0635,0.127 -0.105937,0.253856 -0.105937,0.380855 v 0.709001 h 2.360062 4.7625 v -1.767334 z"
         inkscape:label="S top" />
      <path
         id="path30310"
         style="font-size:10.5833px;line-height:1.25;font-family:LaserCorps;-inkscape-font-specification:LaserCorps;white-space:pre;inline-size:92.3848;fill:url(#linearGradient10084);stroke-width:0.264583;fill-opacity:1.0"
         d="m 85.671253,87.419098 v 1.767334 h 2.360065 v -1.767334 z"
         inkscape:label="J top" />
      <path
         id="path30308"
         style="font-size:10.5833px;line-height:1.25;font-family:LaserCorps;-inkscape-font-specification:LaserCorps;white-space:pre;inline-size:92.3848;fill:url(#linearGradient10084);stroke-width:0.264583;fill-opacity:1.0"
         d="m 76.622193,87.419098 v 1.767334 h 2.370916 v -1.767334 z"
         inkscape:label="I top" />
      <path
         id="path30306"
         style="font-size:10.5833px;line-height:1.25;font-family:LaserCorps;-inkscape-font-specification:LaserCorps;white-space:pre;inline-size:92.3848;fill:url(#linearGradient10084);stroke-width:0.264583;fill-opacity:1.0"
         d="m 73.606356,87.419098 v 1.767334 h 2.360065 v -1.767334 z"
         inkscape:label="U top right" />
      <path
         id="path30304"
         style="font-size:10.5833px;line-height:1.25;font-family:LaserCorps;-inkscape-font-specification:LaserCorps;white-space:pre;inline-size:92.3848;fill:url(#linearGradient10084);stroke-width:0.264583;fill-opacity:1.0"
         d="m 68.843856,87.419098 v 1.767334 h 2.360065 v -1.767334 z"
         inkscape:label="U top left" />
      <path
         id="path30302"
         style="font-size:10.5833px;line-height:1.25;font-family:LaserCorps;-inkscape-font-specification:LaserCorps;white-space:pre;inline-size:92.3848;fill:url(#linearGradient10084);stroke-width:0.264583;fill-opacity:1.0"
         d="m 62.123337,87.419098 c -0.126998,0.02117 -0.253856,0.05277 -0.380855,0.116272 -0.127,0.0635 -0.232895,0.137811 -0.328145,0.23306 -0.105833,0.09525 -0.179896,0.201147 -0.243396,0.328146 -0.0635,0.127 -0.105937,0.253856 -0.105937,0.380855 v 0.709001 h 2.360063 4.762501 v -1.767334 z"
         inkscape:label="G top" />
      <path
         id="path30300"
         style="font-size:10.5833px;line-height:1.25;font-family:LaserCorps;-inkscape-font-specification:LaserCorps;white-space:pre;inline-size:92.3848;fill:url(#linearGradient10084);stroke-width:0.264583;fill-opacity:1.0"
         d="m 50.100816,87.419098 c -0.127,0.02117 -0.254373,0.05277 -0.381373,0.116272 -0.127,0.0635 -0.232378,0.137811 -0.327628,0.23306 -0.105833,0.09525 -0.179896,0.201147 -0.243396,0.328146 -0.0635,0.127 -0.105937,0.253856 -0.105937,0.380855 v 0.709001 h 2.360063 4.7625 v -1.767334 z"
         inkscape:label="S top" />
      <path
         id="path30298"
         style="font-size:10.5833px;line-height:1.25;font-family:LaserCorps;-inkscape-font-specification:LaserCorps;white-space:pre;inline-size:92.3848;fill:url(#linearGradient10084);stroke-width:0.264583;fill-opacity:1.0"
         d="m 41.263629,88.477431 v 0.709001 h 2.360063 2.402437 2.360063 v -0.709001 c -0.02117,-0.296332 -0.137398,-0.539689 -0.338481,-0.730188 -0.211666,-0.1905 -0.444687,-0.306978 -0.719853,-0.328145 h -5.016231 c -0.127,0.02117 -0.254372,0.05277 -0.381372,0.116272 -0.127,0.0635 -0.232896,0.137811 -0.328145,0.23306 -0.09525,0.09525 -0.169044,0.201147 -0.232544,0.328146 -0.0635,0.127 -0.105937,0.253856 -0.105937,0.380855 z"
         inkscape:label="O top" />
    </g>
    <g
       id="g1030"
       transform="translate(0,0.16198592)"
       inkscape:label="Close button">
      <rect
         style="fill:#cccccc;stroke-width:0.529167;stroke-linecap:round;stroke-linejoin:round;stop-color:#000000"
         id="rect30385"
         width="1.003032"
         height="1.003032"
         x="46.567585"
         y="87.685974"
         inkscape:label="Button surface" />
      <path
         id="path30606"
         style="display:inline;fill:#cccccc;stroke:#000000;stroke-width:0.264583;stroke-linecap:round;stroke-linejoin:round;stop-color:#000000"
         inkscape:label="Close icon"
         d="m 46.835155,88.404102 0.471423,-0.447565 m -0.446733,-0.0068 0.444466,0.44739" />
    </g>
    <g
       id="g2"
       inkscape:label="Maximize button">
      <rect
         style="fill:#cccccc;stroke-width:0.529167;stroke-linecap:round;stroke-linejoin:round;stop-color:#000000"
         id="rect30385-3"
         width="1.003032"
         height="1.003032"
         x="45.094162"
         y="87.847961"
         inkscape:label="Button surface" />
      <rect
         style="display:inline;fill:#cccccc;stroke:#000000;stroke-width:0.264583;stroke-linecap:round;stroke-linejoin:round;stop-color:#000000"
         id="rect31961"
         height="0.48541456"
         x="45.361328"
         y="88.109734"
         width="0.48199999"
         ry="0.027467046"
         inkscape:label="Maximize icon" />
    </g>
    <g
       id="g1"
       inkscape:label="Minimize button"
       transform="translate(-1.1458333e-6)">
      <rect
         style="fill:#cccccc;stroke-width:0.529167;stroke-linecap:round;stroke-linejoin:round;stop-color:#000000"
         id="rect30385-3-6"
         width="1.003032"
         height="1.003032"
         x="43.620739"
         y="87.847961"
         inkscape:label="Button surface" />
      <path
         style="display:inline;fill:#cccccc;stroke:#000000;stroke-width:0.264583;stroke-linecap:round;stroke-linejoin:round;stop-color:#000000"
         d="m 43.880885,88.624831 h 0.479089"
         id="path31688"
         sodipodi:nodetypes="cc"
         inkscape:label="Minimize icon" />
    </g>
    <use
       x="0"
       y="0"
       xlink:href="#g1030"
       id="use1032"
       transform="translate(8.1529079)"
       width="100%"
       height="100%"
       inkscape:label="S close button" />
    <use
       x="0"
       y="0"
       xlink:href="#g1030"
       id="use1032-6"
       transform="translate(20.180146)"
       width="100%"
       height="100%"
       inkscape:label="G close button" />
    <use
       x="0"
       y="0"
       xlink:href="#g1030"
       id="use1032-6-5"
       transform="translate(27.988411)"
       width="100%"
       height="100%"
       inkscape:label="U close button" />
    <use
       x="0"
       y="0"
       xlink:href="#g1030"
       id="use1032-6-5-3"
       transform="translate(31.005453)"
       width="100%"
       height="100%"
       inkscape:label="I close button" />
    <use
       x="0"
       y="0"
       xlink:href="#g1030"
       id="use1032-6-5-3-5"
       transform="translate(40.001292)"
       width="100%"
       height="100%"
       inkscape:label="J close button" />
    <use
       x="0"
       y="0"
       xlink:href="#g1030"
       id="use1032-6-5-3-5-6"
       transform="translate(47.795197)"
       width="100%"
       height="100%"
       inkscape:label="S close button" />
  </g>
</svg>
